<?xml version="1.0" encoding="utf-8"?>
<!-- Generator: Adobe Illustrator 20.0.0, SVG Export Plug-In . SVG Version: 6.00 Build 0)  -->
<svg version="1.1" id="afternoonIcon" xmlns="http://www.w3.org/2000/svg" xmlns:xlink="http://www.w3.org/1999/xlink" x="0px"
	 y="0px" viewBox="0 0 150 150" style="enable-background:new 0 0 150 150;" xml:space="preserve">
<style type="text/css">
	.st0{fill:#3B6EAB;}
	.st1{fill:#3C6EAB;}
	.st2{fill:#3D6FAC;}
	.st3{fill:#3E6FAC;}
	.st4{fill:#3F70AC;}
	.st5{fill:#4070AD;}
	.st6{fill:#4171AD;}
	.st7{fill:#4271AD;}
	.st8{fill:#4372AE;}
	.st9{fill:#4472AE;}
	.st10{fill:#4573AE;}
	.st11{fill:#4673AF;}
	.st12{fill:#4774AF;}
	.st13{fill:#4874B0;}
	.st14{fill:#4975B0;}
	.st15{fill:#4A75B0;}
	.st16{fill:#4B76B1;}
	.st17{fill:#4C76B1;}
	.st18{fill:#4D77B1;}
	.st19{fill:#4E77B2;}
	.st20{fill:#4E78B2;}
	.st21{fill:#4F78B2;}
	.st22{fill:#5079B3;}
	.st23{fill:#5179B3;}
	.st24{fill:#527AB3;}
	.st25{fill:#537AB4;}
	.st26{fill:#547BB4;}
	.st27{fill:#557CB4;}
	.st28{fill:#567CB5;}
	.st29{fill:#577DB5;}
	.st30{fill:#577DB6;}
	.st31{fill:#587EB6;}
	.st32{fill:#597EB6;}
	.st33{fill:#5A7FB7;}
	.st34{fill:#5B7FB7;}
	.st35{fill:#5C80B7;}
	.st36{fill:#5D81B8;}
	.st37{fill:#5E82B9;}
	.st38{fill:#5F82B9;}
	.st39{fill:#6083B9;}
	.st40{fill:#6183BA;}
	.st41{fill:#6284BA;}
	.st42{fill:#6285BB;}
	.st43{fill:#6385BB;}
	.st44{fill:#6486BB;}
	.st45{fill:#6586BC;}
	.st46{fill:#6687BC;}
	.st47{fill:#6788BD;}
	.st48{fill:#6889BD;}
	.st49{fill:#6989BE;}
	.st50{fill:#6A8ABE;}
	.st51{fill:#6B8BBF;}
	.st52{fill:#6C8CBF;}
	.st53{fill:#6D8CC0;}
	.st54{fill:#6E8DC0;}
	.st55{fill:#6F8EC1;}
	.st56{fill:#708FC1;}
	.st57{fill:#7190C2;}
	.st58{fill:#7290C2;}
	.st59{fill:#7291C3;}
	.st60{fill:#7391C3;}
	.st61{fill:#7492C4;}
	.st62{fill:#7593C4;}
	.st63{fill:#7693C4;}
	.st64{fill:#7694C5;}
	.st65{fill:#7795C5;}
	.st66{fill:#7895C6;}
	.st67{fill:#7996C6;}
	.st68{fill:#7A97C7;}
	.st69{fill:#7B98C8;}
	.st70{fill:#7C99C8;}
	.st71{fill:#7D9AC8;}
	.st72{fill:#7E9AC9;}
	.st73{fill:#7E9BC9;}
	.st74{fill:#7F9CCA;}
	.st75{fill:#809CCA;}
	.st76{fill:#819DCB;}
	.st77{fill:#829ECB;}
	.st78{fill:#829ECC;}
	.st79{fill:#839FCC;}
	.st80{fill:#84A0CD;}
	.st81{fill:#85A0CD;}
	.st82{fill:#86A1CE;}
	.st83{fill:#87A2CE;}
	.st84{fill:#87A3CE;}
	.st85{fill:#88A3CF;}
	.st86{fill:#89A4CF;}
	.st87{fill:#8AA5D0;}
	.st88{fill:#8BA5D0;}
	.st89{fill:#8BA6D1;}
	.st90{fill:#8CA7D1;}
	.st91{fill:#8DA8D2;}
	.st92{fill:#8EA8D2;}
	.st93{fill:#8FA9D3;}
	.st94{fill:#90AAD3;}
	.st95{fill:#90ABD4;}
	.st96{fill:#91ABD4;}
	.st97{fill:#92ACD5;}
	.st98{fill:#93ADD5;}
	.st99{fill:#94AED6;}
	.st100{fill:#95AED6;}
	.st101{fill:#95AFD7;}
	.st102{fill:#96B0D7;}
	.st103{fill:#97B1D8;}
	.st104{fill:#98B1D8;}
	.st105{fill:#99B2D9;}
	.st106{fill:#9AB3D9;}
	.st107{fill:#9BB4DA;}
	.st108{fill:#9CB4DA;}
	.st109{fill:#9DB5DB;}
	.st110{fill:#9DB6DB;}
	.st111{fill:#9EB7DC;}
	.st112{fill:#9FB8DC;}
	.st113{fill:#A0B8DD;}
	.st114{fill:#A1B9DD;}
	.st115{fill:#A2BADE;}
	.st116{fill:#A3BBDF;}
	.st117{fill:#A4BCDF;}
	.st118{fill:#A5BCE0;}
	.st119{fill:#A5BDE0;}
	.st120{fill:#A6BEE1;}
	.st121{fill:#A7BFE1;}
	.st122{fill:#A8C0E2;}
	.st123{fill:#A9C0E2;}
	.st124{fill:#AAC1E3;}
	.st125{fill:#ABC2E4;}
	.st126{fill:#ACC3E4;}
	.st127{fill:#ADC4E5;}
	.st128{fill:#AEC5E5;}
	.st129{fill:#AFC5E6;}
	.st130{fill:#B0C6E7;}
	.st131{fill:#B0C7E7;}
	.st132{fill:#B1C8E8;}
	.st133{fill:#B2C9E8;}
	.st134{fill:#DCDEE0;}
	.st135{fill:#E8E33B;}
	.st136{fill:#E5E5E5;}
	.st137{fill:#2D2D2D;}
	.st138{fill:#DFDDE0;}
	.st139{fill:#545554;}
	.st140{fill:#686868;}
	.st141{fill:#E9E852;}
	.st142{fill:#F9F9FA;}
	.st143{fill:#434444;}
	.st144{fill:#C12430;}
	.st145{fill:#C02230;}
	.st146{fill:#2B2B2B;}
	.st147{fill:#DCDCDC;}
	.st148{fill:#B4B385;}
	.st149{fill:#506552;}
	.st150{fill:#375B55;}
	.st151{fill:#695561;}
	.st152{fill:#274F49;}
	.st153{fill:#45587F;}
</style>
<g id="gradientBackgroundBigCircle_1_">
	<circle class="st0" cx="75.4" cy="74.8" r="74.6"/>
	<circle class="st1" cx="75.5" cy="74.5" r="74.2"/>
	<circle class="st2" cx="75.6" cy="74.2" r="73.7"/>
	<circle class="st3" cx="75.6" cy="73.9" r="73.3"/>
	<circle class="st4" cx="75.7" cy="73.6" r="72.8"/>
	<circle class="st5" cx="75.8" cy="73.2" r="72.4"/>
	<circle class="st6" cx="75.9" cy="72.9" r="71.9"/>
	<circle class="st7" cx="75.9" cy="72.6" r="71.5"/>
	<circle class="st8" cx="76" cy="72.3" r="71"/>
	<circle class="st9" cx="76.1" cy="72" r="70.6"/>
	<circle class="st10" cx="76.2" cy="71.7" r="70.1"/>
	<circle class="st11" cx="76.3" cy="71.4" r="69.7"/>
	<circle class="st12" cx="76.3" cy="71.1" r="69.3"/>
	<circle class="st13" cx="76.4" cy="70.8" r="68.8"/>
	<circle class="st14" cx="76.5" cy="70.5" r="68.4"/>
	<circle class="st15" cx="76.6" cy="70.1" r="67.9"/>
	<circle class="st16" cx="76.7" cy="69.8" r="67.5"/>
	<circle class="st17" cx="76.7" cy="69.5" r="67"/>
	<circle class="st18" cx="76.8" cy="69.2" r="66.6"/>
	<circle class="st19" cx="76.9" cy="68.9" r="66.1"/>
	<circle class="st20" cx="77" cy="68.6" r="65.7"/>
	<circle class="st21" cx="77.1" cy="68.3" r="65.2"/>
	<circle class="st22" cx="77.1" cy="68" r="64.8"/>
	<circle class="st23" cx="77.2" cy="67.7" r="64.3"/>
	<circle class="st24" cx="77.3" cy="67.3" r="63.9"/>
	<circle class="st25" cx="77.4" cy="67" r="63.4"/>
	<circle class="st26" cx="77.4" cy="66.7" r="63"/>
	<circle class="st27" cx="77.5" cy="66.4" r="62.5"/>
	<circle class="st28" cx="77.6" cy="66.1" r="62.1"/>
	<circle class="st29" cx="77.7" cy="65.8" r="61.7"/>
	<circle class="st30" cx="77.8" cy="65.5" r="61.2"/>
	<circle class="st31" cx="77.8" cy="65.2" r="60.8"/>
	<circle class="st32" cx="77.9" cy="64.9" r="60.3"/>
	<circle class="st33" cx="78" cy="64.6" r="59.9"/>
	<circle class="st34" cx="78.1" cy="64.2" r="59.4"/>
	<circle class="st35" cx="78.2" cy="63.9" r="59"/>
	<circle class="st36" cx="78.2" cy="63.6" r="58.5"/>
	<circle class="st36" cx="78.3" cy="63.3" r="58.1"/>
	<circle class="st37" cx="78.4" cy="63" r="57.6"/>
	<circle class="st38" cx="78.5" cy="62.7" r="57.2"/>
	<circle class="st39" cx="78.6" cy="62.4" r="56.7"/>
	<circle class="st40" cx="78.6" cy="62.1" r="56.3"/>
	<circle class="st41" cx="78.7" cy="61.8" r="55.8"/>
	<circle class="st42" cx="78.8" cy="61.4" r="55.4"/>
	<circle class="st43" cx="78.9" cy="61.1" r="54.9"/>
	<circle class="st44" cx="78.9" cy="60.8" r="54.5"/>
	<circle class="st45" cx="79" cy="60.5" r="54.1"/>
	<circle class="st46" cx="79.1" cy="60.2" r="53.6"/>
	<circle class="st47" cx="79.2" cy="59.9" r="53.2"/>
	<circle class="st47" cx="79.3" cy="59.6" r="52.7"/>
	<circle class="st48" cx="79.3" cy="59.3" r="52.3"/>
	<circle class="st49" cx="79.4" cy="59" r="51.8"/>
	<circle class="st50" cx="79.5" cy="58.7" r="51.4"/>
	<circle class="st51" cx="79.6" cy="58.3" r="50.9"/>
	<circle class="st51" cx="79.7" cy="58" r="50.5"/>
	<circle class="st52" cx="79.7" cy="57.7" r="50"/>
	<circle class="st53" cx="79.8" cy="57.4" r="49.6"/>
	<circle class="st54" cx="79.9" cy="57.1" r="49.1"/>
	<circle class="st55" cx="80" cy="56.8" r="48.7"/>
	<circle class="st55" cx="80.1" cy="56.5" r="48.2"/>
	<circle class="st56" cx="80.1" cy="56.2" r="47.8"/>
	<circle class="st57" cx="80.2" cy="55.9" r="47.3"/>
	<circle class="st58" cx="80.3" cy="55.5" r="46.9"/>
	<circle class="st59" cx="80.4" cy="55.2" r="46.5"/>
	<circle class="st60" cx="80.4" cy="54.9" r="46"/>
	<circle class="st61" cx="80.5" cy="54.6" r="45.6"/>
	<circle class="st62" cx="80.6" cy="54.3" r="45.1"/>
	<circle class="st63" cx="80.7" cy="54" r="44.7"/>
	<circle class="st64" cx="80.8" cy="53.7" r="44.2"/>
	<circle class="st65" cx="80.8" cy="53.4" r="43.8"/>
	<circle class="st66" cx="80.9" cy="53.1" r="43.3"/>
	<circle class="st67" cx="81" cy="52.8" r="42.9"/>
	<circle class="st68" cx="81.1" cy="52.4" r="42.4"/>
	<circle class="st68" cx="81.2" cy="52.1" r="42"/>
	<circle class="st69" cx="81.2" cy="51.8" r="41.5"/>
	<circle class="st70" cx="81.3" cy="51.5" r="41.1"/>
	<circle class="st71" cx="81.4" cy="51.2" r="40.6"/>
	<circle class="st72" cx="81.5" cy="50.9" r="40.2"/>
	<circle class="st73" cx="81.6" cy="50.6" r="39.8"/>
	<circle class="st74" cx="81.6" cy="50.3" r="39.3"/>
	<circle class="st75" cx="81.7" cy="50" r="38.9"/>
	<circle class="st76" cx="81.8" cy="49.6" r="38.4"/>
	<circle class="st77" cx="81.9" cy="49.3" r="38"/>
	<circle class="st78" cx="81.9" cy="49" r="37.5"/>
	<circle class="st79" cx="82" cy="48.7" r="37.1"/>
	<circle class="st80" cx="82.1" cy="48.4" r="36.6"/>
	<circle class="st81" cx="82.2" cy="48.1" r="36.2"/>
	<circle class="st82" cx="82.3" cy="47.8" r="35.7"/>
	<circle class="st83" cx="82.3" cy="47.5" r="35.3"/>
	<circle class="st84" cx="82.4" cy="47.2" r="34.8"/>
	<circle class="st85" cx="82.5" cy="46.9" r="34.4"/>
	<circle class="st86" cx="82.6" cy="46.5" r="33.9"/>
	<circle class="st87" cx="82.7" cy="46.2" r="33.5"/>
	<circle class="st88" cx="82.7" cy="45.9" r="33"/>
	<circle class="st89" cx="82.8" cy="45.6" r="32.6"/>
	<circle class="st90" cx="82.9" cy="45.3" r="32.2"/>
	<circle class="st91" cx="83" cy="45" r="31.7"/>
	<circle class="st92" cx="83.1" cy="44.7" r="31.3"/>
	<circle class="st93" cx="83.1" cy="44.4" r="30.8"/>
	<circle class="st94" cx="83.2" cy="44.1" r="30.4"/>
	<circle class="st95" cx="83.3" cy="43.7" r="29.9"/>
	<circle class="st96" cx="83.4" cy="43.4" r="29.5"/>
	<circle class="st97" cx="83.5" cy="43.1" r="29"/>
	<circle class="st98" cx="83.5" cy="42.8" r="28.6"/>
	<circle class="st99" cx="83.6" cy="42.5" r="28.1"/>
	<circle class="st100" cx="83.7" cy="42.2" r="27.7"/>
	<circle class="st101" cx="83.8" cy="41.9" r="27.2"/>
	<circle class="st102" cx="83.8" cy="41.6" r="26.8"/>
	<circle class="st103" cx="83.9" cy="41.3" r="26.3"/>
	<circle class="st104" cx="84" cy="40.9" r="25.9"/>
	<circle class="st105" cx="84.1" cy="40.6" r="25.4"/>
	<circle class="st106" cx="84.2" cy="40.3" r="25"/>
	<circle class="st107" cx="84.2" cy="40" r="24.6"/>
	<circle class="st108" cx="84.3" cy="39.7" r="24.1"/>
	<circle class="st109" cx="84.4" cy="39.4" r="23.7"/>
	<circle class="st110" cx="84.5" cy="39.1" r="23.2"/>
	<circle class="st111" cx="84.6" cy="38.8" r="22.8"/>
	<circle class="st112" cx="84.6" cy="38.5" r="22.3"/>
	<circle class="st113" cx="84.7" cy="38.2" r="21.9"/>
	<circle class="st114" cx="84.8" cy="37.8" r="21.4"/>
	<circle class="st115" cx="84.9" cy="37.5" r="21"/>
	<circle class="st116" cx="85" cy="37.2" r="20.5"/>
	<circle class="st117" cx="85" cy="36.9" r="20.1"/>
	<circle class="st118" cx="85.1" cy="36.6" r="19.6"/>
	<circle class="st119" cx="85.2" cy="36.3" r="19.2"/>
	<circle class="st120" cx="85.3" cy="36" r="18.7"/>
	<circle class="st121" cx="85.3" cy="35.7" r="18.3"/>
	<circle class="st122" cx="85.4" cy="35.4" r="17.9"/>
	<circle class="st123" cx="85.5" cy="35" r="17.4"/>
	<circle class="st124" cx="85.6" cy="34.7" r="17"/>
	<circle class="st125" cx="85.7" cy="34.4" r="16.5"/>
	<circle class="st126" cx="85.7" cy="34.1" r="16.1"/>
	<circle class="st127" cx="85.8" cy="33.8" r="15.6"/>
	<circle class="st128" cx="85.9" cy="33.5" r="15.2"/>
	<circle class="st129" cx="86" cy="33.2" r="14.7"/>
	<circle class="st130" cx="86.1" cy="32.9" r="14.3"/>
	<circle class="st131" cx="86.1" cy="32.6" r="13.8"/>
	<circle class="st132" cx="86.2" cy="32.3" r="13.4"/>
	<circle class="st133" cx="86.3" cy="31.9" r="12.9"/>
</g>
<path id="cloudRight" class="st134" d="M125.4,42.9c0,0-7,5.6-14.9,2.1s7.4-7.2,7.4-7.2s0.2-6.8,4.2-5.8
	C126.2,33,125.4,42.9,125.4,42.9z"/>
<path id="cloudLeft" class="st134" d="M24.9,42.9c0,0,10.9-1.5,13.5,13.9c0,0,6.3-8.3,13-1.9s-4,15.3-4,15.3s2,16.5-31.8,1.8
	C8,60.5,13.8,50.3,13.8,50.3S18.7,47.5,24.9,42.9z"/>
<circle id="sun_1_" class="st135" cx="86.8" cy="31.9" r="9.2"/>
<polygon id="tourHouseBase_1_" class="st136" points="80.4,89.1 80.4,74.4 74.5,70.3 74.5,66.7 69.3,66.7 69.3,69.9 62.7,75.3 
	62.7,89.7 "/>
<rect id="tourHouseWindow_1_" x="65.2" y="76.5" class="st137" width="3.1" height="4.1"/>
<rect id="chimney_1_" x="69.3" y="66.7" class="st138" width="5.2" height="22.2"/>
<path id="lightSocket_1_" class="st139" d="M57.6,45c0,0,2.3,1.6,2.3,2.5c0,0.9-2.3,2.9-2.3,2.9V45z"/>
<path id="lightArm_1_" class="st140" d="M59.9,42.9L59,47.2c0,0,0.2,0.8,0.8,0.3l1.8-4L59.9,42.9z"/>
<path id="lightBulb_1_" class="st141" d="M57.6,50c0,0-4.6-2.1,0-4.8V50z"/>
<path id="lighthouseBaseStroke_2_" class="st142" d="M59.1,89.8c2.9,0,5.8,0.4,8.5,1c-1-14.7-2.1-32.5-2.1-32.5
	c-2.6-0.7-4.8-0.7-7-0.6c-2.2-0.2-4.4-0.1-7,0.6c0,0-1.1,18.1-2.2,32.9C52.4,90.3,55.7,89.8,59.1,89.8z"/>
<path id="lighthouseWindow_1_" class="st143" d="M63.3,43.9L63.3,43.9v0.9l-0.7-0.1v-0.9L63.3,43.9c-0.4-0.5-1-0.7-1.6-0.7h-6.4
	c-0.6,0-1.2,0.3-1.5,0.7h0.7v0.9l-0.7,0.1l0.1-0.8l-0.1-0.1c-0.3,0.4-0.6,0.9-0.6,1.4v6.5h10.6v-6.5C63.9,44.7,63.7,44.2,63.3,43.9z
	 M54.4,50.2l-0.8,0.1v-1h0.8V50.2z M54.4,48.3l-0.8,0.1v-1h0.8V48.3z M54.4,46.4l-0.8,0.1v-1h0.8V46.4z M56.3,50.1h-0.9v-0.9h0.9
	V50.1z M56.3,48.3h-0.9v-0.9h0.9V48.3z M56.3,46.3l-0.9,0.1v-0.9h0.9V46.3z M56.3,44.6h-0.9v-0.9h0.9V44.6z M58.1,50.1h-0.9v-0.9
	l0.9-0.1V50.1z M58.1,48.3h-0.9v-0.9l0.9-0.1V48.3z M58.1,46.4h-0.9v-0.9l0.9-0.1V46.4z M58.1,44.6h-0.9v-0.9l0.9-0.1L58.1,44.6z
	 M59.9,50.1H59v-1l0.9,0.1V50.1z M59.9,48.3H59v-1l0.9,0.1V48.3z M59.9,46.4H59v-1l0.9,0.1V46.4z M59.9,44.6H59l0-1l0.9,0.1V44.6z
	 M61.8,50.1H61v-0.9h0.9V50.1z M61.8,48.3H61v-0.9h0.9V48.3z M61.8,46.4L61,46.3v-0.8h0.9V46.4z M61.8,44.6H61v-0.9h0.9V44.6z
	 M63.5,50.3l-0.8-0.1v-0.9h0.8V50.3z M63.5,48.4l-0.8-0.1v-0.9h0.8V48.4z M63.5,46.5l-0.8-0.1v-0.9h0.8V46.5z"/>
<path id="topBase_2_" class="st144" d="M64.9,55.6c0,0,0.4-1.6,0.4-2.3c0.1-0.8-1.6-1.8-3.1-2.2c-1.4-0.4-6.8-0.8-9.8,1.2
	c-0.5,0.3-0.8,0.9-0.7,1.5c0,0.4,0.5,1.8,0.5,1.8H64.9z"/>
<path id="topRoof_1_" class="st145" d="M59.5,39.2l0.4,0.2c0.5,0.2,0.9,0.5,1.3,0.8c0.3,0.2,0.6,0.4,0.8,0.7l2.8,3.3l-4.5-0.6
	c-1.2-0.2-2.5-0.2-3.7,0l-4.4,0.6l2.4-2.9c0,0,0,0,0.1-0.1c0.6-0.8,1.3-1.4,2.2-1.8l0.3-0.2C58.1,39.1,58.8,39.1,59.5,39.2z"/>
<path id="topPoint_2_" class="st145" d="M58.6,39.3c0,0,1.9-1.4,0-3.2C58.6,36.1,56.7,37.8,58.6,39.3"/>
<rect id="windowRight_1_" x="52.7" y="77" class="st146" width="0.8" height="3.5"/>
<rect id="windowLeft_1_" x="62.8" y="68.5" class="st146" width="0.8" height="3.5"/>
<polygon class="st142" points="51.3,58.3 65.5,58.3 67.1,55.3 49.8,55.3 "/>
<path id="railing_1_" class="st142" d="M49.8,51.7v3.6h17.3v-3.6H49.8z M50.6,54.9h-0.4v-2.7h0.4V54.9z M51.8,54.9h-0.4v-2.7h0.4
	V54.9z M53.1,54.9h-0.4v-2.7h0.4V54.9z M54.3,54.9h-0.4v-2.7h0.4V54.9z M55.5,54.9h-0.4v-2.7h0.4V54.9z M56.7,54.9h-0.4v-2.7h0.4
	V54.9z M58,54.9h-0.4v-2.7H58V54.9z M59.2,54.9h-0.4v-2.7h0.4V54.9z M60.4,54.9h-0.4v-2.7h0.4V54.9z M61.7,54.9h-0.4v-2.7h0.4V54.9z
	 M62.9,54.9h-0.4v-2.7h0.4V54.9z M64.1,54.9h-0.4v-2.7h0.4V54.9z M65.4,54.9H65v-2.7h0.4V54.9z M66.6,54.9h-0.4v-2.7h0.4V54.9z"/>
<path id="islandBase_2_" class="st147" d="M135.3,108.7c0,11-38.2,19.9-61.3,19.9s-51.2-8.9-51.2-19.9c0-5.5,14.1-12.7,21.7-16.3
	s18-3.6,29.5-3.6c11.3,0,45.4,2.4,52.9,5.8C134.9,98.3,135.3,103.1,135.3,108.7z"/>
<path id="grass_1_" class="st148" d="M61.8,95.7c0,0,5.2,0.7,5.7,9.1c0.5,8.4,23.3,3.9,23.3,3.9s7.6-7.1,14.8-2.5
	c5.9,3.8,14.8-4.1,18-7.9c2.5-3,2-5,1.2-5.2c-6.1-1.4-30.2-5.5-57.6-4.3c-36.7,1.6-23.8,7.3-23.8,7.3S44.2,99.4,61.8,95.7z"/>
<path id="grassDetail_1_" class="st149" d="M40.4,93.2c0,0-2.2-0.2-2-2.6c0,0,2.1,2.1,3.7,1.3c1.6-0.8,3.9-1.2,3.9-1.2
	s3.1-0.6,2-2.4c-1.1-1.7,0.4,0,0.4,0s0.7,1,0.6,2c0.3,0.1,0.6-1.2-0.2-2c0,0,0.4-0.2,1,1c0.6,1.2,0.3,1.3,0.3,1.3S49,92,50.5,91.1
	c0.5-0.3,0.7,0.3-1.2,0.9c-0.8,0.3,14.3,1.3,12.7,1.7c-18.4,4-18.4-0.6-19.7-0.6C41.7,93.1,41.1,93.2,40.4,93.2z"/>
<path id="treetopBack_1_" class="st150" d="M103.6,82c2-0.9,2.5-2.2,2.5-2.2s1.2-0.3-3.3-6.2c-4.5-5.9-8.9-2.8-12.3-2.2
	c-3.4,0.6-6.2,5.8-5.1,6.2c0.6,0.2,1.3,1.4,1.8,2.4c0.4,0.7,1,1.2,1.8,1.4c0.8,0.2,1.9,0.6,2.6,1.4c1.2,1.6-0.9,2.8-0.4,4.4
	c0.4,1.6,3.7,2.5,3.8,3.3c0,0.3,0.3,0.5,0.7,0.6c0.8,0.2,1.6,0.1,2.2-0.4c0.6-0.4,1.6-0.9,3.1-0.6c2,0.4,1.9-1.6,1.7-2.5
	c0-0.3,0-0.5,0-0.8c0.2-1,0.4-3.1-0.8-2.3c0,0-2.2,0.1-1-0.3C102,83.8,102.3,82.6,103.6,82z"/>
<path id="treeTrunkBack_1_" class="st151" d="M96.5,88.8c0,0,1.3,2.3,0.7,2.9h-0.9L96.5,88.8z"/>
<path id="treetopFront_1_" class="st152" d="M80.2,74.6c-2.2,0.3-3,1.5-3,1.5s-1.2,0,1.6,6.8s7.9,5,11.3,5.3c3.4,0.3,7.5-4,6.5-4.7
	c-0.5-0.4-0.9-1.7-1.2-2.8c-0.2-0.8-0.7-1.5-1.4-1.8c-0.8-0.4-1.7-1-2.1-2c-0.8-1.9,1.6-2.5,1.6-4.1s-3-3.3-2.8-4.1
	c0.1-0.3-0.2-0.5-0.5-0.7c-0.7-0.4-1.5-0.5-2.3-0.2c-0.7,0.3-1.8,0.4-3.1-0.2c-1.8-0.9-2.2,1.1-2.3,1.9c0,0.3-0.1,0.5-0.2,0.8
	c-0.4,0.9-1.2,2.9,0.2,2.4c0,0,2.2,0.5,0.9,0.6C82.2,73.4,81.6,74.4,80.2,74.6z"/>
<path id="treeTrunkFront_1_" class="st151" d="M86.3,85c0,0-2.3,1.8-1,4.7c1.2,2.8-1.7,0.6-1.7,0.6S83.2,84.4,86.3,85z"/>
<path id="outerIconCasing_1_" class="st153" d="M74.9,0.2C33.7,0.2,0.2,33.6,0.2,74.8s33.4,74.6,74.6,74.6s74.6-33.4,74.6-74.6
	S116.1,0.2,74.9,0.2z M121.7,111c0,0-8.5-5-17.3-6.9c-8.8-1.9-15.6,10.1-29.6,6.1c-14-3.9,0-10.6,0-10.6c-10.4-5.5-20.3,5-20.3,5
	s-7.2,7.7-13.6,5c-6.3-2.7,0-7.2,0-7.2s-2.7-6.3-10.9,0c-2.2,1.7-4.3,2.5-6.1,2.7c-5.3-8.9-8.3-19.2-8.3-30.3
	c0-32.7,26.5-59.2,59.2-59.2c32.7,0,59.2,26.5,59.2,59.2C134.1,88.4,129.5,101,121.7,111z"/>
<path id="top" class="st0" d="M103.5,53.5c0,0,3.5,0.1,5.1,1.8c0,0,0.9-2,4-2.1c0,0-2.7-0.4-4.1,1.1
	C108.5,54.2,105.4,53.2,103.5,53.5z"/>
<path id="bottomRight" class="st0" d="M116.7,58.3c0,0,1.1-0.6,2.3,1.2c0,0,0.1-0.9,0.5-1.3c0,0-0.6,0.2-0.6,0.7
	C118.8,58.9,117.3,57.6,116.7,58.3z"/>
<path id="bottomLeft" class="st0" d="M107.4,58.8c0,0,1.2-0.2,1.9,0.7c0,0,0.5-0.8,1.2-0.7c0,0-1.2-0.1-1.3,0.4
	C109.3,59.2,107.7,58.4,107.4,58.8z"/>
</svg>
