<?xml version="1.0" encoding="utf-8"?>
<!-- Generator: Adobe Illustrator 20.0.0, SVG Export Plug-In . SVG Version: 6.00 Build 0)  -->
<svg version="1.1" id="boat" xmlns="http://www.w3.org/2000/svg" xmlns:xlink="http://www.w3.org/1999/xlink" x="0px" y="0px"
	 viewBox="0 0 83.8 75.1" style="enable-background:new 0 0 83.8 75.1;" xml:space="preserve">
<style type="text/css">
	.st0{fill:#FFFFFF;}
	.st1{display:none;fill:#FFFFFF;}
</style>
<g id="anchor">
	<g id="line">
		<path class="st0" d="M17.5,38.2c-1,1.7-1.8,3.5-2.5,5.3c-0.3,0.9-0.6,1.9-0.7,2.9c-0.1,0.5-0.1,1,0,1.5c0,0.5,0.2,1,0.3,1.4
			l1.6,5.7l0.8,2.8l0.4,1.4c0.1,0.5,0.2,1,0.2,1.5l0,0.1l-0.1,0l0,0c-0.2,0.1-0.3,0.3-0.4,0.4c-0.1,0.1-0.2,0.3-0.1,0.4
			c0,0,0.1,0.1,0.2,0.1c0.1,0,0.2,0,0.2,0c0.2,0,0.3-0.1,0.4-0.2l0,0c0,0,0-0.1,0-0.1c0,0,0-0.1,0-0.1c0-0.1-0.1-0.2-0.1-0.2
			c-0.1-0.1-0.2-0.3-0.3-0.4l0.2-0.2c0.1,0.1,0.3,0.3,0.4,0.5c0.1,0.1,0.1,0.2,0.1,0.3c0,0,0,0.1,0,0.2c0,0.1,0,0.1,0,0.2l0,0l0,0
			c-0.2,0.2-0.4,0.3-0.6,0.3c-0.1,0-0.2,0-0.4-0.1C17,62,17,62,17,61.9c-0.1,0-0.1-0.1-0.2-0.1c-0.1-0.1-0.1-0.3,0-0.4
			c0-0.1,0.1-0.2,0.2-0.3c0.1-0.2,0.3-0.3,0.5-0.4l0,0l-0.1,0.1c0-0.5-0.1-1-0.2-1.4l-0.3-1.4L16.1,55l-1.6-5.7
			c-0.1-0.5-0.3-1-0.3-1.5c0-0.5,0-1,0-1.5c0.1-1,0.4-1.9,0.7-2.9C15.6,41.7,16.5,39.9,17.5,38.2z"/>
	</g>
	<path id="anchorBottom" class="st0" d="M20,67.1l-0.4,0.5c0,0,0.2,0.1,0.1,0.2c-0.1,0.1-0.5,2.9-2,0.6v-6.5l-0.3,0l-0.1,0v6.5
		c-1.7,2.3-2.6-0.5-2.6-0.6c-0.1-0.1,0.1-0.2,0.1-0.2l-0.5-0.5c0,0,0,1.1,0,0.9c0-0.2,0.2,0,0.2,0c1.1,3,2.6,1.3,2.9,0.7
		c0.3,0.5,1.5,2.3,2.5-0.7c0,0,0.1-0.1,0.1,0C20,68.2,20,67.1,20,67.1z"/>
	<path id="anchorTop" class="st0" d="M15.4,63.5h3.8c0,0,0-0.4,0.2-0.2c0.2,0.2,0,0.5,0,0.5s-0.2,0-0.7-0.1c-0.7,0-3.3,0.1-3.3,0.1
		l-0.3,0.1c0,0-0.2-0.2-0.1-0.5C15.1,63.3,15.3,63,15.4,63.5z"/>
</g>
<path id="backpiece_1_" class="st1" d="M27,22.3c0,0-1.6,1.7-6.1,2.2s-6.7,4.6-6.7,4.6l0.2,0.5c0,0,3.2-4.2,7.9-4.5s5.1-0.9,5.1-0.9
	l3.7-2.2l-1.2-2.4L27,22.3z"/>
<path id="boatBase_2_" class="st0" d="M75.7,24.3c0,0-2.8,0.8-4.5,3.7c-1.7,2.8-7,5.2-7,5.2s-24.2,7-50,0v-2.9c0,0,4-5.3,8.5-4.8
	s16.2,0.2,16.2,0.2s1-2.3,1.8-2.4c0.4,0,8.1-0.1,16.2-0.1C66.2,23.2,75.8,23.5,75.7,24.3z"/>
<path id="boatTop_2_" class="st0" d="M49,16c0,0,1.8-0.1,2.2,0.5c0.3,0.6,4.5,5.1,4.5,5.1s-3.1-3.5-4.2-5.6c0,0-0.4-0.3,0.4-0.7
	c0,0-2.9-1.2-13.4-1.1C27.9,14.3,26,15.4,26,15.4s1.4,8.9,2,9.3c0.6,0.4,1.9,0.4,4.9,0.4h5.7c0,0,1-1.8,1.9-2.3
	c0.9-0.6,15.2-0.1,15.2-0.1S51.7,20.3,49,16z M38.7,21.3h-3.9v-3.6c0,0,0.1-1.2,0.8-1.3c0.7-0.1,2.4,0,2.4,0s0.8,0,0.8,0.8
	C38.7,18,38.7,21.3,38.7,21.3z M40.1,21.3v-5h8c0.6,0,1.2,0.3,1.6,0.8l2.8,4.1H40.1z"/>
<path id="railing_1_" class="st0" d="M79,19.8c-0.1,0-2.8,0.1-6.6,0.1l0,0c0,0,0,0,0,0c-1.5,0-3.1,0.1-4.9,0.1c0,0-0.3,0-0.3,0
	c-0.9,0-1.8,0-2.7,0.1c0,0-0.4-0.1-0.4,0c-1.3,0-2.6,0.1-4,0.1c0,0,0,0,0,0l-0.6,0c-1.5,0-3.1,0.1-4.6,0.1c0,0-0.1,0-0.1,0
	c-6.7,0.1-12.2,0.2-12.6,0.2c-0.8,0-1.4,0.6-1.5,0.9h-8.5c-0.5,0-4,2.5-5.4,3.5l-1.1,1.3l12.4,1l3.5-3.4c1.3,0,5.4,0.1,10.4,0.2
	l0.7,0c1.3,0,2.7,0,4.2,0.1c0,0,0,0,0.3,0c1.4,0,2.9,0,4.3,0.1l0,0.1c0,0,0.1,0,0.2-0.1c1,0,2,0,3,0l0,0c0,0,0.1,0,0.1,0
	c1.8,0,3.5,0,5,0v0c0,0,0,0,0,0c0.5,0,1.1,0,1.5,0v0c0,0,0,0,0.1,0c2.4,0,4-0.1,4.2-0.2c1.1-0.5,3.6-3.6,3.9-4l0.3-0.4L79,19.8z
	 M26.6,26l0.4-0.5c2.2-1.6,4.7-3.4,5.1-3.4h1.1l-1.6,4.4L26.6,26z M37.9,26.9l-5.8-0.5l1.6-4.4h6.7l-1.7,3.5l-0.2,0.4L37.9,26.9z
	 M52.3,23.7c-3.8-0.1-7.6-0.1-10.9-0.2l-0.1,0l-2.1,2l1.8-3.7c0,0,0.4-0.8,1.2-0.8c0.4,0,5.7-0.1,12.2-0.2
	C53.7,22,52.9,23.1,52.3,23.7z M56.8,23.8c-1.3,0-2.6,0-3.8-0.1c0.5-0.6,1.1-1.5,2.1-2.9c1.3,0,2.7-0.1,4-0.1
	C58.2,22.1,57.2,23.4,56.8,23.8z M61.3,23.9c-1.2,0-2.5,0-3.8-0.1c0.4-0.5,1.1-1.4,2.2-3.1c1.3,0,2.7-0.1,4-0.1
	C62.7,22.1,61.6,23.5,61.3,23.9z M64.4,23.9c-0.8,0-1.6,0-2.4,0c0.4-0.5,1.2-1.4,2.4-3.2c0.9,0,1.7,0,2.6-0.1
	C65.8,22.2,64.7,23.7,64.4,23.9z M69.4,23.9c-1.3,0-2.8,0-4.4,0c0.4-0.5,1.2-1.5,2.4-3.3c1.6,0,3.2-0.1,4.6-0.1
	C70.9,22.1,69.7,23.7,69.4,23.9z M71,23.9c-0.3,0-0.6,0-0.9,0c0.4-0.5,1.2-1.5,2.5-3.4c0.3,0,0.7,0,1,0C72.5,22.1,71.3,23.7,71,23.9
	z M75.1,23.8c-0.2,0.1-1.5,0.1-3.4,0.1c0.4-0.5,1.2-1.5,2.5-3.5c2,0,3.5-0.1,4.3-0.1C77.6,21.5,75.8,23.5,75.1,23.8z"/>
<path id="motor_2_" class="st0" d="M11.7,28.9v-2.8c0,0-1.7-1.5-3.5-1c-1.8,0.5-3.1,1.3-3.1,1.3v4.2c0,0,0.6,1,1.6,1.6
	c1,0.6,1.9,0.9,1.9,0.9h2.5c0,0,0.4-0.6,1.2-0.4c0.8,0.2,1.9-0.3,1.9-0.3l0.2-2.3V30C14.4,30,12.5,28.9,11.7,28.9z M9.8,32.8
	c-0.3,0.1-0.6,0-0.8-0.2l-0.7-1.1c0.4,0.1,0.6,0.3,1.4,0.1c0.2-0.1,1-0.3,1-0.3C10.8,32.2,10.3,32.6,9.8,32.8z M11,28.8
	c-0.2,0.2-1.8,0.6-1.8,0.6s-2.9-0.3-3.3-0.5c-0.3-0.2,0-0.3,0-0.3S7.4,29,8.8,29c1.4,0,2.2-0.6,2.2-0.6S11.2,28.7,11,28.8z M11,28.2
	c-0.2,0.2-1.8,0.6-1.8,0.6s-2.9-0.3-3.3-0.5c-0.3-0.2,0-0.3,0-0.3s1.6,0.4,2.9,0.4c1.4,0,2.2-0.6,2.2-0.6S11.2,28,11,28.2z M11,27.4
	C10.8,27.6,9.1,28,9.1,28s-2.9-0.3-3.3-0.5s0-0.3,0-0.3s1.6,0.4,2.9,0.4S11,27,11,27S11.2,27.2,11,27.4z"/>
</svg>
