<?xml version="1.0" encoding="utf-8"?>
<!-- Generator: Adobe Illustrator 20.0.0, SVG Export Plug-In . SVG Version: 6.00 Build 0)  -->
<svg version="1.1" id="ChantryIslandLogo_x5F_recreated"
	 xmlns="http://www.w3.org/2000/svg" xmlns:xlink="http://www.w3.org/1999/xlink" x="0px" y="0px" viewBox="0 0 141 175.3"
	 style="enable-background:new 0 0 141 175.3;" xml:space="preserve">
<style type="text/css">
	.st0{fill:#9A1E22;}
	.st1{fill:#F9F9FA;}
	.st2{fill:#434343;}
	.st3{fill:#434444;}
	.st4{fill:#C12430;}
	.st5{fill:#C02230;}
	.st6{fill:#2B2B2B;}
	.st7{fill:#2D2D2D;}
	.st8{fill:#F9F9FA;stroke:#2B2B2B;stroke-miterlimit:10;}
	.st9{fill:#45587F;}
</style>
<g id="Layer_6">
	<g>
		<path class="st0" d="M22.2,86.3C26.8,63.4,47.2,46,71.6,46c24.3,0,44.7,17.3,49.4,40.3l4-0.2C120.2,61,98,42,71.6,42
			c-26.5,0-48.6,19-53.4,44.2L22.2,86.3z"/>
		<path class="st0" d="M120.4,108.8c-5.5,21.8-25.3,38-48.9,38c-23.5,0-43.3-16.2-48.9-38l-4.1,0.1c5.7,24,27.2,41.9,52.9,41.9
			c25.7,0,47.3-17.9,52.9-41.9L120.4,108.8z"/>
	</g>
</g>
<g id="lighthouse">
	<g id="lighthouseBaseStroke_1_">
		<path class="st1" d="M71,59c3.1,0,6,0.4,8.9,1.1c-1.1-15.3-1.7-33.9-1.7-33.9c-2.7-0.7-5.6-0.7-7.8-0.6c-2.3-0.2-5.1-0.1-7.8,0.6
			c0,0-0.6,18.9-1.7,34.2C64,59.5,67.4,59,71,59z"/>
		<path class="st2" d="M71,58.8c3,0,6,0.4,8.9,1.1l0,0l-0.3,0.3c-0.3-5.6-0.6-11.3-0.8-17c-0.1-2.8-0.2-5.7-0.4-8.5l-0.5-8.5l0,0
			l0.2,0.2c-2.5-0.7-5.2-0.8-7.8-0.6l0,0l0,0c-2.6-0.2-5.2-0.1-7.8,0.6l0,0l0.2-0.2l-0.5,8.6L62.1,39l-0.2,4.3
			C61.6,49,61.4,54.7,61,60.4l0,0l-0.3-0.3C64,59.2,67.5,58.8,71,58.8z M71,59.3c-3.4,0-6.8,0.5-10.1,1.4l-0.3,0.1l0-0.4l0,0
			c0.4-5.7,0.8-11.4,1.1-17.1l0.2-4.3c0.1-1.4,0.1-2.9,0.2-4.3c0.1-2.9,0.2-5.7,0.2-8.6l0-0.2l0.2,0l0,0c2.6-0.7,5.3-0.8,7.9-0.6h0
			c2.6-0.2,5.3-0.1,7.9,0.6l0.2,0l0,0.2l0,0c0,2.8,0.1,5.7,0.2,8.5c0.1,2.8,0.2,5.7,0.4,8.5c0.3,5.6,0.7,11.3,1.1,16.9l0,0.3
			l-0.3-0.1l0,0C76.9,59.6,73.9,59.3,71,59.3z"/>
	</g>
	<g id="lighthouseTop">
		<path id="lighthouseWindow_1_" class="st3" d="M75.4,13.3L75.4,13.3v0.9l-0.8-0.1v-0.9L75.4,13.3c-0.4-0.5-1-0.8-1.6-0.8h-6.7
			c-0.6,0-1.2,0.3-1.6,0.7h0.8v0.9l-0.8,0.1l0.1-0.9l-0.1-0.1c-0.4,0.4-0.6,0.9-0.6,1.5v6.8h11v-6.8C76,14.2,75.8,13.7,75.4,13.3z
			 M66.2,20l-0.8,0.1v-1h0.8V20z M66.2,18l-0.8,0.1v-1h0.8V18z M66.2,16l-0.8,0.1v-1h0.8V16z M68.1,19.9h-0.9v-0.9h0.9V19.9z
			 M68.1,18h-0.9v-0.9h0.9V18z M68.1,15.9L67.1,16v-0.9h0.9V15.9z M68.1,14.1h-0.9v-0.9h0.9V14.1z M70,19.9H69v-0.9l0.9-0.1V19.9z
			 M70,18H69v-0.9l0.9-0.1V18z M70,16H69v-0.9l0.9-0.1V16z M70,14.1H69v-0.9L70,13L70,14.1z M71.9,19.9H71v-1l0.9,0.1V19.9z
			 M71.9,18H71v-1.1l0.9,0.1V18z M71.9,16H71v-1.1l0.9,0.1V16z M71.9,14.1H71l0-1.1l0.9,0.1V14.1z M73.9,19.9H73v-0.9h0.9V19.9z
			 M73.9,18H73v-0.9h0.9V18z M73.9,16L73,15.9v-0.8h0.9V16z M73.9,14.1H73v-0.9h0.9V14.1z M75.6,20.1L74.8,20v-0.9h0.8V20.1z
			 M75.6,18.1L74.8,18v-0.9h0.8V18.1z M75.6,16.1L74.8,16v-0.9h0.8V16.1z"/>
		<path id="topBase_2_" class="st4" d="M78.9,25.5c0,0-0.1-1.9,0.6-2.4s-2.1-1.8-4.1-2.3s-10.3-1-14.1,1.9c0,0-0.2,0.3,0.2,0.4
			s0.6,2.4,0.6,2.4H78.9z"/>
		<path id="topRoof_1_" class="st5" d="M71.5,8.5l0.4,0.2c0.5,0.2,1,0.5,1.4,0.8c0.3,0.3,0.6,0.5,0.8,0.8l2.9,3.5l-4.6-0.7
			c-1.3-0.2-2.6-0.2-3.8,0l-4.6,0.7l2.6-3c0,0,0,0,0.1-0.1c0.6-0.8,1.4-1.5,2.3-1.9l0.4-0.2C69.9,8.4,70.7,8.3,71.5,8.5z"/>
		<path id="topPoint_2_" class="st5" d="M70.5,8.6c0,0,2-1.5,0-3.3C70.5,5.3,68.5,7,70.5,8.6"/>
		<rect x="74.9" y="52.3" class="st6" width="0.9" height="3.7"/>
		<rect x="64.8" y="43.4" class="st6" width="0.9" height="3.7"/>
	</g>
	<path id="lighthouseRim_1_" class="st7" d="M63.1,24.9c0,0-1.5,0.3-2,1.7c0,0-0.3,1,1.4,0.9c1.7-0.1,1.6-0.7,3.3-0.9
		c1.7-0.3,3.2,0.1,3.2,0.1s1.3,0.3,1.9,0c0.6-0.3,3.7-0.4,4.4,0c0.7,0.3,2.2,0.9,2.2,0.9s2.7,0.1,1.6-1.9c0,0,0-0.7-3.6-1.1
		C75.6,24.6,64.7,24.3,63.1,24.9z"/>
</g>
<g id="middleCircle">
	<g id="bottomCircle">
		<path id="BottomCircleShape_1_" class="st6" d="M106.8,108.4C106.8,108.4,106.8,108.4,106.8,108.4l-1,0c-4.9,14.5-18.7,25-34.8,25
			c-16.1,0-29.9-10.5-34.8-25l-1,0l0,0l-19.9,0.2c0.1,0.3,0.2,0.7,0.2,1l20-0.3c5.2,14.6,19.2,25,35.5,25c16.4,0,30.3-10.5,35.5-25
			l20.8,0.3c0.1-0.3,0.2-0.7,0.2-1L106.8,108.4z"/>
	</g>
	<g id="topCircle">
		<path id="topCircleShape" class="st6" d="M127.8,86.5c-0.1-0.3-0.1-0.7-0.2-1L107.2,86C102.7,70.3,88.1,58.8,71,58.8
			c-17.5,0-32.2,11.9-36.5,28.1c0.1-0.3,0.2-0.6,0.3-0.9l-19.6-0.6c-0.1,0.3-0.1,0.7-0.2,1l19.5,0.5l1,0C39.7,71.3,54,59.8,71,59.8
			c17,0,31.3,11.6,35.5,27.2l1,0c0,0,0,0,0,0L127.8,86.5z"/>
	</g>
	<g id="topCircle_copy">
	</g>
</g>
<g id="Text">
	<g>
		<path class="st0" d="M54.8,87.1v-0.4c1.2-0.1,1.4-0.4,1.4-1.3v-7.9l-4,9.7h-0.4l-4-9.5V85c0,1.2,0.3,1.6,1.6,1.7v0.4h-3.7v-0.4
			c1.2-0.1,1.5-0.3,1.5-1.3v-7.5c0-0.9-0.3-1.1-1.4-1.2v-0.4h4l3.2,7.6l3.2-7.6h4v0.4c-1.2,0.1-1.4,0.4-1.4,1.6v6.9
			c0,1.2,0.1,1.5,1.4,1.6v0.4H54.8z"/>
		<path class="st0" d="M68.3,86.4c-0.6,0.7-1.1,0.9-1.8,0.9c-0.8,0-1.1-0.3-1.3-1.1c-0.9,0.8-1.6,1.1-2.5,1.1c-1,0-1.8-0.5-1.8-1.7
			c0-0.7,0.4-1.3,1.1-1.8c0.6-0.4,1.4-0.7,3.2-1.2v-1.1c0-1-0.4-1.5-1.3-1.5c-0.6,0-1,0.2-1,0.6c0,0.1,0,0.2,0.2,0.4
			c0.2,0.3,0.3,0.4,0.3,0.7c0,0.5-0.4,1-1.1,1c-0.7,0-1-0.4-1-1.1c0-1.3,1.2-2,3.1-2c2,0,3.1,0.8,3.1,2.1v4.2c0,0.3,0.1,0.4,0.3,0.4
			c0.1,0,0.1,0,0.2-0.1l0.2-0.2L68.3,86.4z M65.1,83.2c-1.3,0.4-2,1-2,1.9c0,0.7,0.4,1.1,0.8,1.1c0.4,0,0.8-0.1,1.1-0.6V83.2z"/>
		<path class="st0" d="M71.9,81c0.8-1.1,1.4-1.5,2.2-1.5c0.8,0,1.3,0.5,1.3,1.3c0,0.6-0.4,1.1-1,1.1c-0.4,0-0.7-0.2-1-0.6
			c-0.2-0.3-0.3-0.4-0.4-0.4c-0.6,0-1,0.7-1,1.7v2.8c0,1,0.2,1.2,1.2,1.3v0.4h-4.2v-0.4c0.7-0.1,0.9-0.3,0.9-1v-4.6
			c0-0.8-0.2-0.9-0.9-1v-0.4h3V81z"/>
		<path class="st0" d="M75.9,87.1v-0.4c0.7-0.2,0.8-0.3,0.8-1v-4.6c0-0.7-0.2-0.9-0.9-1v-0.4H79v6c0,0.7,0.2,0.9,0.8,1v0.4H75.9z
			 M77.9,78.5c-0.7,0-1.2-0.5-1.2-1.2s0.5-1.2,1.3-1.2c0.7,0,1.2,0.6,1.2,1.2C79.1,78,78.6,78.5,77.9,78.5z"/>
		<path class="st0" d="M85,87.1v-0.4c0.5-0.1,0.7-0.3,0.7-1V82c0-0.9-0.3-1.4-0.8-1.4c-0.4,0-0.8,0.2-1.1,0.5
			c-0.2,0.2-0.3,0.3-0.3,0.4v4.2c0,0.6,0.2,0.9,0.8,1v0.4h-3.8v-0.4c0.7-0.1,0.8-0.3,0.8-1v-4.6c0-0.7-0.1-0.9-0.8-1v-0.4h3.1v1.2h0
			c0.5-1,1.3-1.4,2.3-1.4c1.3,0,2.2,0.9,2.2,2.3v4c0,0.7,0.2,0.9,0.8,1v0.4H85z"/>
		<path class="st0" d="M95.9,85.3c-1,1.5-1.8,2-3.2,2c-1.9,0-3.3-1.6-3.3-3.8c0-2.4,1.3-4,3.3-4c0.9,0,1.6,0.3,2,0.8
			c0.6,0.7,0.9,1.7,0.9,2.8h-4c0.1,1.5,0.3,3,1.9,3c0.7,0,1.2-0.3,1.8-1.1L95.9,85.3z M93.8,82.2c0-0.8,0-1.2-0.1-1.5
			c-0.2-0.5-0.4-0.8-0.9-0.8c-0.7,0-1.1,0.6-1.1,2.6h2.1V82.2z"/>
		<path class="st0" d="M44.8,103.1v-0.5c1.3-0.1,1.6-0.4,1.6-1.3v-4.1h-4.3v4.1c0,1,0.3,1.2,1.6,1.3v0.5h-6v-0.5
			c1.3-0.2,1.5-0.4,1.5-1.3v-8.6c0-1-0.3-1.2-1.5-1.3v-0.4h6v0.4c-1.3,0.1-1.6,0.3-1.6,1.3v3.7h4.3v-3.7c0-1-0.3-1.2-1.6-1.3v-0.4
			h6.1v0.4c-1.2,0.1-1.6,0.4-1.6,1.3v8.6c0,1,0.3,1.2,1.6,1.3v0.5H44.8z"/>
		<path class="st0" d="M59,101.1c-1.1,1.7-2,2.3-3.6,2.3c-2.2,0-3.7-1.8-3.7-4.3c0-2.7,1.5-4.5,3.8-4.5c1,0,1.8,0.3,2.3,0.9
			c0.7,0.7,1,1.9,1.1,3.2h-4.5c0.1,1.7,0.4,3.4,2.1,3.4c0.8,0,1.3-0.3,2.1-1.2L59,101.1z M56.6,97.6c0-0.9,0-1.3-0.2-1.7
			c-0.3-0.5-0.5-0.8-1-0.8c-0.8,0-1.3,0.7-1.3,2.9h2.4V97.6z"/>
		<path class="st0" d="M63.2,96.3c0.8-1.2,1.5-1.7,2.4-1.7c0.8,0,1.5,0.6,1.5,1.4c0,0.7-0.5,1.2-1.1,1.2c-0.5,0-0.8-0.2-1.1-0.7
			c-0.2-0.3-0.4-0.4-0.5-0.4c-0.6,0-1.1,0.8-1.1,1.9v3.2c0,1.2,0.2,1.4,1.3,1.5v0.4h-4.8v-0.4c0.8-0.1,1-0.3,1-1.1v-5.2
			c0-0.8-0.2-1-1-1.2v-0.4h3.4V96.3z"/>
		<path class="st0" d="M67.7,103.1v-0.4c0.8-0.2,1-0.3,1-1.2v-5.1c0-0.8-0.2-1-1-1.2v-0.4h3.5v6.8c0,0.8,0.2,1,0.9,1.1v0.4H67.7z
			 M69.8,93.4c-0.8,0-1.4-0.6-1.4-1.4c0-0.8,0.6-1.4,1.4-1.4c0.8,0,1.4,0.6,1.4,1.4C71.2,92.9,70.6,93.4,69.8,93.4z"/>
		<path class="st0" d="M78.4,101.3c-0.7,1.5-1.5,2-2.7,2c-1.2,0-2-0.7-2-1.9v-5.8h-1v-0.5c1.3-0.9,2-1.8,3-3.3h0.5v3h1.7v0.8h-1.7
			v5.4c0,0.7,0.2,1.1,0.7,1.1c0.4,0,0.7-0.3,1-1L78.4,101.3z"/>
		<path class="st0" d="M87.3,102.3c-0.7,0.7-1.2,1-2,1c-0.9,0-1.3-0.3-1.5-1.2c-1,0.9-1.8,1.2-2.9,1.2c-1.2,0-2-0.6-2-1.9
			c0-0.8,0.4-1.5,1.2-2c0.7-0.4,1.5-0.8,3.6-1.4v-1.2c0-1.2-0.4-1.7-1.5-1.7c-0.6,0-1.2,0.2-1.2,0.7c0,0.1,0,0.2,0.2,0.4
			c0.2,0.3,0.3,0.5,0.3,0.8c0,0.6-0.5,1.1-1.2,1.1c-0.7,0-1.2-0.5-1.2-1.2c0-1.4,1.4-2.3,3.4-2.3c2.2,0,3.5,0.9,3.5,2.4v4.7
			c0,0.3,0.1,0.5,0.4,0.5c0.1,0,0.1,0,0.2-0.1l0.2-0.2L87.3,102.3z M83.8,98.7c-1.4,0.4-2.2,1.1-2.2,2.2c0,0.8,0.4,1.2,0.9,1.2
			c0.4,0,0.9-0.2,1.3-0.7V98.7z"/>
		<path class="st0" d="M93,101.9c1.9,0,3.2,0.8,3.2,2.2c0,1.7-1.7,2.8-4.7,2.8c-2.3,0-3.5-0.6-3.5-1.7c0-0.7,0.6-1.2,1.7-1.4
			c-1.2-0.4-1.5-0.8-1.5-1.5c0-1.1,0.7-1.7,2.1-2.1c-1.3-0.4-2.2-1.4-2.2-2.7c0-1.8,1.5-2.9,3.7-2.9c0.7,0,1.2,0.1,2,0.4h2.3v1h-1.4
			c0.5,0.5,0.7,1,0.7,1.8c0,1.1-0.6,1.9-1.7,2.4c-0.6,0.3-0.6,0.3-2.3,0.3c-0.7,0-1.2,0.3-1.2,0.9c0,0.5,0.4,0.7,1.8,0.7H93z
			 M90.2,104c-0.5,0.4-0.6,0.6-0.6,1c0,0.8,0.8,1.2,2.4,1.2c1.8,0,2.8-0.5,2.8-1.2c0-0.6-0.4-1-1.6-1H90.2z M91.8,95.1
			c-0.8,0-1.2,0.6-1.2,2.4c0,1.7,0.3,2.3,1.2,2.3s1.2-0.6,1.2-2.3C93,95.8,92.7,95.1,91.8,95.1z"/>
		<path class="st0" d="M103.9,101.1c-1.1,1.7-2,2.3-3.6,2.3c-2.2,0-3.7-1.8-3.7-4.3c0-2.7,1.5-4.5,3.8-4.5c1,0,1.8,0.3,2.3,0.9
			c0.7,0.7,1,1.9,1.1,3.2h-4.5c0.1,1.7,0.4,3.4,2.1,3.4c0.8,0,1.3-0.3,2.1-1.2L103.9,101.1z M101.6,97.6c0-0.9,0-1.3-0.2-1.7
			c-0.3-0.5-0.5-0.8-1-0.8c-0.8,0-1.3,0.7-1.3,2.9h2.4V97.6z"/>
		<path class="st0" d="M53.7,111.5c-0.3-1-0.6-1.5-1.1-2.1c-0.6-0.6-1.2-0.9-2-0.9c-1.1,0-1.8,0.7-1.8,1.6c0,0.8,0.4,1.2,1.6,1.8
			c0.8,0.4,1.6,0.8,2.4,1.2c1,0.6,1.7,1.6,1.7,2.8c0,2-1.6,3.4-4,3.4c-0.7,0-1.3-0.1-2.1-0.4c-0.4-0.1-0.5-0.2-0.7-0.2
			c-0.3,0-0.4,0.1-0.5,0.5h-0.5v-4h0.5c0.3,1.1,0.5,1.7,1,2.3c0.6,0.8,1.4,1.2,2.3,1.2c1.2,0,2-0.7,2-1.8c0-0.6-0.4-1-0.9-1.4
			c-0.5-0.4-1.3-0.7-2-1c-1.8-0.9-2.7-1.7-2.7-3.4c0-2,1.3-3.2,3.5-3.2c0.6,0,1.1,0.1,1.9,0.4c0.3,0.1,0.5,0.2,0.7,0.2
			c0.3,0,0.4-0.1,0.5-0.5h0.5v3.5H53.7z"/>
		<path class="st0" d="M59.3,119.3c-2,0-3.6-1.6-3.6-3.9c0-2.3,1.6-3.9,3.7-3.9c2,0,3.6,1.6,3.6,3.9
			C62.9,117.7,61.3,119.3,59.3,119.3z M59.3,112c-1,0-1.3,0.8-1.3,3.6c0,2.3,0.3,3.2,1.3,3.2s1.2-0.8,1.2-3.2
			C60.5,112.9,60.2,112,59.3,112z"/>
		<path class="st0" d="M70.1,117.6c-0.9,1.2-1.8,1.7-3.1,1.7c-2,0-3.4-1.5-3.4-3.8c0-2.4,1.7-4,3.8-4c1.4,0,2.5,0.7,2.5,1.8
			c0,0.6-0.4,1-1.1,1c-0.5,0-0.9-0.4-0.9-1.2c0-0.8,0-1.1-0.7-1.1c-0.8,0-1.3,1-1.3,2.7c0,2.2,0.8,3.5,2.2,3.5
			c0.7,0,1.1-0.2,1.7-0.9L70.1,117.6z"/>
		<path class="st0" d="M70.6,119.1v-0.4c0.7-0.2,0.8-0.3,0.8-1v-4.6c0-0.7-0.2-0.9-0.9-1v-0.4h3.1v6c0,0.7,0.2,0.9,0.8,1v0.4H70.6z
			 M72.6,110.5c-0.7,0-1.2-0.5-1.2-1.2s0.5-1.2,1.3-1.2c0.7,0,1.2,0.6,1.2,1.2C73.8,110,73.3,110.5,72.6,110.5z"/>
		<path class="st0" d="M81.7,117.3c-1,1.5-1.8,2-3.2,2c-1.9,0-3.3-1.6-3.3-3.8c0-2.4,1.3-4,3.3-4c0.9,0,1.6,0.3,2,0.8
			c0.6,0.7,0.9,1.7,0.9,2.8h-4c0.1,1.5,0.3,3,1.9,3c0.7,0,1.2-0.3,1.8-1.1L81.7,117.3z M79.6,114.2c0-0.8,0-1.2-0.1-1.5
			c-0.2-0.5-0.4-0.8-0.9-0.8c-0.7,0-1.1,0.6-1.1,2.6h2.1V114.2z"/>
		<path class="st0" d="M87.1,117.5c-0.7,1.3-1.3,1.8-2.4,1.8c-1.1,0-1.8-0.6-1.8-1.7v-5.2h-0.8V112c1.2-0.8,1.7-1.6,2.7-3h0.4v2.7
			h1.5v0.7h-1.5v4.8c0,0.6,0.2,1,0.6,1c0.3,0,0.6-0.2,0.9-0.8L87.1,117.5z"/>
		<path class="st0" d="M94.8,112.1c-0.5,0.1-0.7,0.2-1,0.9l-2.4,6.4c-0.6,1.5-0.9,2.1-1.2,2.5c-0.3,0.4-0.8,0.5-1.3,0.5
			c-0.9,0-1.6-0.5-1.6-1.3c0-0.6,0.4-1.1,1-1.1c0.5,0,1,0.4,1,0.8c0,0.1,0,0.1,0,0.2c0,0,0,0.1,0,0.1c0,0.1,0.1,0.3,0.3,0.3
			c0.4,0,0.8-0.5,1.1-1.3l0.3-0.8l-1.9-4.6c-0.3-0.8-0.9-2.1-1.1-2.3c-0.1-0.1-0.2-0.2-0.5-0.2v-0.4h4v0.4l-0.3,0
			c-0.4,0-0.6,0.2-0.6,0.4c0,0.1,0.1,0.5,0.3,0.9l1.2,3l1.1-3c0.1-0.4,0.2-0.6,0.2-0.8c0-0.4-0.2-0.5-0.9-0.5v-0.4h2.4V112.1z"/>
	</g>
</g>
<g id="allCompassPoints">
	<g id="bigPoint">
		<path id="bigPointShape" class="st8" d="M71,133.8c-3.2,0-6.3-0.4-9.3-1.2l8.9,40l7.8-39.6C76,133.6,73.5,133.8,71,133.8z"/>
		<path id="coloredHalf" class="st9" d="M78,133.7c-2.4,0.4-5,0.6-7.5,0.6c0,11.7,0,36.4,0,36.4"/>
	</g>
	<g id="compassPoints">
		<g id="bottomPoints_1_">
			<path id="bottomLeft_1_" class="st9" d="M41.7,120.3l-3.6,7l6.6-3.6C43.6,122.6,42.6,121.5,41.7,120.3z"/>
			<path id="bottomRight_1_" class="st9" d="M96.7,124.1l7.3,4.2l-4.2-7.5C98.9,122,97.9,123.1,96.7,124.1z"/>
		</g>
		<g id="topPoints_1_">
			<path id="topRight_1_" class="st9" d="M99.6,72l4.4-7.9L96.7,69C97.7,70,98.7,71,99.6,72z"/>
			<path id="topLeft_1_" class="st9" d="M45,69.2l-7.8-5.1l4.7,8.4C42.8,71.4,43.9,70.3,45,69.2z"/>
		</g>
	</g>
</g>
<g id="lighthouseBaseRim">
	<g>
		<path class="st9" d="M40.5,45.4c-0.1,1.2-0.5,1.7-1.2,2.3c-1.4,1-3,0.6-3.9-0.7c-1-1.4-0.7-3.1,0.6-4c0.3-0.2,0.7-0.4,1.2-0.5
			c0.2,0,0.3-0.1,0.4-0.1c0.1-0.1,0.1-0.2,0.1-0.5l0.2-0.1l1.1,1.6l-0.2,0.1c-0.4-0.3-0.7-0.4-1-0.5c-0.6-0.2-1.1-0.1-1.5,0.2
			c-0.7,0.5-0.7,1.6,0.2,2.9c0.5,0.7,0.9,1.1,1.4,1.3c0.4,0.2,0.9,0.1,1.3-0.2c0.3-0.2,0.5-0.5,0.7-0.8c0.1-0.3,0.2-0.6,0.3-1.1
			L40.5,45.4z"/>
		<path class="st9" d="M43.3,45l-0.1-0.2c0.2-0.2,0.2-0.3,0.1-0.6l-0.9-1.6c-0.3-0.5-0.5-0.6-0.7-0.5c-0.2,0.1-0.3,0.3-0.4,0.5
			c0,0.1,0,0.2,0,0.2l1,1.8c0.2,0.3,0.3,0.3,0.6,0.2l0.1,0.2l-1.7,0.9L41.2,46c0.3-0.2,0.3-0.3,0.1-0.7l-2-3.5
			c-0.2-0.3-0.3-0.3-0.6-0.2l-0.1-0.2l1.3-0.8l1.1,2c0.1-0.6,0.4-0.9,0.7-1.1c0.6-0.3,1.1-0.1,1.4,0.4l1,1.7
			c0.2,0.3,0.3,0.4,0.6,0.2l0.1,0.2L43.3,45z"/>
		<path class="st9" d="M48.4,42.1c-0.1,0.4-0.3,0.6-0.6,0.8c-0.4,0.2-0.6,0.1-0.8-0.2c-0.2,0.5-0.5,0.8-0.9,1
			c-0.5,0.2-0.9,0.1-1.2-0.4c-0.2-0.3-0.1-0.7,0.1-1c0.2-0.3,0.5-0.6,1.2-1.2l-0.2-0.5c-0.2-0.5-0.5-0.6-0.9-0.4
			c-0.3,0.1-0.4,0.3-0.3,0.5c0,0,0.1,0.1,0.2,0.1c0.1,0.1,0.2,0.1,0.3,0.2c0.1,0.2,0,0.5-0.3,0.7c-0.3,0.1-0.6,0-0.7-0.3
			c-0.3-0.6,0.1-1.2,0.9-1.6c0.9-0.4,1.6-0.3,1.9,0.3l0.9,1.9c0.1,0.1,0.1,0.2,0.2,0.1c0,0,0.1,0,0.1-0.1l0-0.1L48.4,42.1z
			 M46.3,41.3c-0.5,0.4-0.7,0.9-0.5,1.3c0.2,0.3,0.4,0.4,0.6,0.3c0.2-0.1,0.3-0.2,0.4-0.5L46.3,41.3z"/>
		<path class="st9" d="M50.8,41.5l-0.1-0.2c0.2-0.1,0.3-0.3,0.2-0.6L50.2,39c-0.2-0.4-0.4-0.6-0.6-0.5c-0.2,0.1-0.3,0.2-0.4,0.5
			c0,0.1-0.1,0.2-0.1,0.2l0.8,2c0.1,0.3,0.2,0.4,0.5,0.3l0.1,0.2l-1.8,0.7l-0.1-0.2c0.3-0.2,0.3-0.3,0.2-0.6L48,39.4
			c-0.1-0.3-0.2-0.4-0.6-0.3l-0.1-0.2l1.4-0.6l0.2,0.6l0,0c0.1-0.5,0.4-0.9,0.8-1.1c0.6-0.2,1.2,0,1.4,0.7l0.7,1.8
			c0.1,0.3,0.2,0.4,0.5,0.3l0.1,0.2L50.8,41.5z"/>
		<path class="st9" d="M54.9,39.2c-0.1,0.7-0.3,1.1-0.8,1.2c-0.5,0.2-1,0-1.1-0.5l-0.8-2.5l-0.4,0.1l-0.1-0.2c0.4-0.6,0.6-1,0.8-1.8
			l0.2-0.1l0.4,1.3l0.7-0.2l0.1,0.3l-0.7,0.2l0.7,2.3c0.1,0.3,0.2,0.4,0.4,0.4c0.2-0.1,0.2-0.2,0.3-0.5L54.9,39.2z"/>
		<path class="st9" d="M55.9,36.6c0.2-0.6,0.5-0.9,0.9-1c0.4-0.1,0.7,0.1,0.8,0.4c0.1,0.3-0.1,0.6-0.3,0.7c-0.2,0.1-0.4,0-0.5-0.2
			c-0.1-0.1-0.2-0.1-0.3-0.1c-0.3,0.1-0.4,0.5-0.3,0.9l0.4,1.4c0.1,0.5,0.2,0.6,0.7,0.5l0,0.2L55.3,40l0-0.2
			c0.3-0.2,0.4-0.3,0.3-0.6L54.9,37c-0.1-0.4-0.2-0.4-0.6-0.4l0-0.2l1.5-0.4L55.9,36.6z"/>
		<path class="st9" d="M61.6,34.9c-0.2,0.1-0.3,0.2-0.4,0.5l-0.6,3.4c-0.1,0.8-0.2,1.1-0.4,1.3c-0.1,0.2-0.3,0.3-0.6,0.4
			c-0.4,0.1-0.8-0.1-0.9-0.5c-0.1-0.3,0.1-0.6,0.4-0.6c0.3-0.1,0.5,0.1,0.6,0.3c0,0,0,0.1,0,0.1c0,0,0,0,0,0c0,0.1,0.1,0.1,0.2,0.1
			c0.2,0,0.3-0.3,0.4-0.7l0.1-0.4l-1.4-2.1c-0.2-0.4-0.7-1-0.7-1c-0.1-0.1-0.1-0.1-0.3-0.1l0-0.2l2-0.4l0,0.2l-0.1,0
			c-0.2,0.1-0.3,0.1-0.2,0.3c0,0,0.1,0.2,0.2,0.4l0.8,1.4l0.2-1.6c0-0.2,0-0.3,0-0.4c0-0.2-0.1-0.2-0.5-0.2l0-0.2l1.2-0.2L61.6,34.9
			z"/>
		<path class="st9" d="M64.5,38.1l0-0.2c0.6-0.1,0.7-0.2,0.7-0.7l-0.3-3.7c0-0.4-0.2-0.5-0.8-0.5l0-0.2l2.8-0.3l0,0.2
			c-0.6,0.1-0.7,0.2-0.7,0.7l0.3,3.7c0,0.5,0.2,0.6,0.8,0.6l0,0.2L64.5,38.1z"/>
		<path class="st9" d="M70.2,35.1c-0.1-0.3-0.2-0.5-0.4-0.6c-0.2-0.2-0.4-0.2-0.6-0.2c-0.3,0-0.5,0.2-0.5,0.5c0,0.3,0.2,0.5,0.8,0.7
			c0.8,0.3,1.1,0.6,1.1,1.2c0,0.7-0.5,1.2-1.2,1.3c-0.2,0-0.6-0.1-0.9-0.2c-0.1,0-0.1,0-0.2,0c-0.1,0-0.1,0.1-0.2,0.2l-0.2,0l0-1.3
			l0.2,0c0.2,0.7,0.6,1,1.1,1c0.4,0,0.6-0.2,0.6-0.5c0-0.3-0.2-0.4-0.8-0.7c-0.8-0.3-1.2-0.7-1.2-1.2c0-0.7,0.5-1.2,1.2-1.2
			c0.2,0,0.4,0,0.6,0.1c0.1,0,0.2,0.1,0.2,0c0.1,0,0.2,0,0.2-0.2l0.2,0l0,1.2L70.2,35.1z"/>
		<path class="st9" d="M71.2,37.7l0-0.2c0.3,0,0.4-0.1,0.4-0.5l0.1-4c0-0.3-0.1-0.5-0.4-0.5l0-0.2l1.5,0L72.7,37
			c0,0.4,0.1,0.5,0.4,0.5l0,0.2L71.2,37.7z"/>
		<path class="st9" d="M77.6,37.7c-0.3,0.3-0.6,0.4-0.9,0.4c-0.4,0-0.6-0.2-0.6-0.6c-0.5,0.4-0.9,0.5-1.3,0.4
			c-0.5,0-0.9-0.3-0.8-0.9c0-0.4,0.2-0.6,0.6-0.8c0.3-0.2,0.7-0.3,1.7-0.5l0-0.5c0-0.5-0.1-0.8-0.6-0.8c-0.3,0-0.5,0.1-0.5,0.2
			c0,0,0,0.1,0.1,0.2c0.1,0.1,0.1,0.2,0.1,0.3c0,0.3-0.3,0.5-0.6,0.4c-0.3,0-0.5-0.3-0.5-0.6c0.1-0.6,0.7-0.9,1.6-0.9
			c1,0.1,1.5,0.5,1.5,1.2l-0.2,2.1c0,0.1,0,0.2,0.1,0.2c0,0,0.1,0,0.1,0l0.1-0.1L77.6,37.7z M76.2,36c-0.7,0.1-1,0.4-1.1,0.9
			c0,0.4,0.1,0.5,0.4,0.6c0.2,0,0.4,0,0.6-0.3L76.2,36z"/>
		<path class="st9" d="M80.3,38.5l0-0.2c0.3,0,0.4-0.1,0.4-0.4l0.3-1.9c0.1-0.4,0-0.7-0.3-0.7c-0.2,0-0.4,0-0.6,0.2
			c-0.1,0.1-0.2,0.1-0.2,0.2l-0.3,2.1c0,0.3,0,0.4,0.3,0.5l0,0.2l-1.9-0.3l0-0.2c0.4,0,0.4-0.1,0.5-0.4l0.4-2.3
			c0.1-0.3,0-0.4-0.3-0.6l0-0.2l1.5,0.3l-0.1,0.6l0,0c0.3-0.4,0.8-0.6,1.2-0.5c0.6,0.1,1,0.6,0.9,1.3l-0.3,1.9
			c-0.1,0.4,0,0.5,0.3,0.5l0,0.2L80.3,38.5z"/>
		<path class="st9" d="M85.9,39.6c-0.5-0.1-0.7-0.1-1.1-0.1l0.1-0.5c-0.5,0.3-0.7,0.4-1.2,0.3c-0.8-0.2-1.2-1.1-1-2.2
			c0.3-1.1,1.1-1.8,2-1.6c0.4,0.1,0.6,0.3,0.8,0.7l0.3-1.4c0.1-0.4,0-0.4-0.5-0.6l0-0.2l1.7,0.4l-1.1,4.5c-0.1,0.3,0,0.5,0.3,0.6
			l0,0.2L85.9,39.6z M85.5,36.7c0-0.3-0.2-0.6-0.5-0.6c-0.5-0.1-0.8,0.3-1,1.3c-0.2,1-0.2,1.5,0.3,1.6c0.2,0,0.4,0,0.6-0.2
			c0.1-0.1,0.2-0.2,0.2-0.2L85.5,36.7z"/>
		<path class="st9" d="M94.7,38.7c0.2-0.9-0.1-1.4-1-1.8l-1.5,4c-0.2,0.6-0.2,0.7,0.5,1L92.7,42L90,41l0.1-0.2
			c0.7,0.2,0.8,0.1,1-0.4l1.5-4c-0.9-0.3-1.5-0.1-1.9,0.7l-0.2-0.1l0.6-1.5l4.5,1.7L95,38.8L94.7,38.7z"/>
		<path class="st9" d="M95.2,43.2c-0.9-0.4-1.3-1.5-0.9-2.5c0.5-1.1,1.5-1.5,2.5-1.1c0.9,0.4,1.3,1.5,0.8,2.5
			C97.2,43.1,96.1,43.6,95.2,43.2z M96.6,39.8c-0.4-0.2-0.7,0.1-1.3,1.4c-0.5,1.1-0.5,1.5-0.1,1.7s0.7-0.1,1.2-1.2
			C97,40.5,97.1,40,96.6,39.8z"/>
		<path class="st9" d="M100.7,45.6c-0.5-0.2-0.7-0.2-1-0.3l0.2-0.5C99.3,45,99,45,98.6,44.8c-0.6-0.3-0.8-0.9-0.4-1.5l0.9-1.7
			c0.2-0.3,0.2-0.4-0.1-0.6l0.1-0.2l1.3,0.7l-1.2,2.4c-0.2,0.4-0.1,0.6,0.1,0.7c0.2,0.1,0.4,0.1,0.8,0l1-2c0.2-0.3,0.1-0.5-0.2-0.7
			l0.1-0.2l1.4,0.7l-1.3,2.5c-0.2,0.3-0.1,0.5,0.2,0.6l-0.1,0.2L100.7,45.6z"/>
		<path class="st9" d="M104.3,44.3c0.6-0.3,1-0.3,1.3-0.1c0.3,0.2,0.4,0.6,0.2,0.9c-0.2,0.3-0.5,0.4-0.7,0.2
			c-0.2-0.1-0.3-0.2-0.3-0.5c0-0.2,0-0.2-0.1-0.3c-0.2-0.1-0.6,0.1-0.8,0.5l-0.7,1.2c-0.3,0.4-0.2,0.6,0.2,0.9l-0.1,0.2l-1.8-1.1
			l0.1-0.2c0.3,0.1,0.5,0.1,0.6-0.2l1.2-2c0.2-0.3,0.1-0.5-0.1-0.7l0.1-0.2l1.3,0.8L104.3,44.3z"/>
		<path class="st9" d="M108,47c0.1-0.4,0.1-0.5,0-0.8c-0.1-0.2-0.2-0.4-0.4-0.5c-0.3-0.2-0.6-0.1-0.7,0.1c-0.1,0.2-0.1,0.5,0.3,1
			c0.5,0.7,0.6,1.2,0.3,1.6c-0.4,0.6-1.1,0.8-1.7,0.4c-0.2-0.1-0.5-0.4-0.6-0.6c-0.1-0.1-0.1-0.1-0.1-0.1c-0.1,0-0.1,0-0.3,0.1
			l-0.2-0.1l0.7-1.1l0.2,0.1c-0.2,0.7-0.1,1.2,0.4,1.5c0.3,0.2,0.6,0.1,0.8-0.1c0.1-0.2,0.1-0.5-0.3-1c-0.5-0.7-0.6-1.2-0.3-1.7
			c0.4-0.6,1.1-0.7,1.7-0.3c0.2,0.1,0.3,0.2,0.5,0.4c0.1,0.1,0.1,0.2,0.2,0.2c0.1,0.1,0.1,0,0.3,0l0.1,0.1l-0.6,1L108,47z"/>
	</g>
</g>
</svg>
