<?xml version="1.0" encoding="utf-8"?>
<!-- Generator: Adobe Illustrator 20.0.0, SVG Export Plug-In . SVG Version: 6.00 Build 0)  -->
<svg version="1.1" xmlns="http://www.w3.org/2000/svg" xmlns:xlink="http://www.w3.org/1999/xlink" x="0px" y="0px"
	 viewBox="0 0 372.3 238.7" style="enable-background:new 0 0 372.3 238.7;" xml:space="preserve">
<style type="text/css">
	.st0{fill:#B0B0B0;}
	.st1{fill:#DCDEE0;}
	.st2{fill:#FFFFFF;}
</style>
<g id="midground">
	<path class="st1" d="M275.4,3.8c-2.8-1.7-4.4,1.7-4.4,1.7c-2.2-5.1-5.8-3.7-5.8-3.7l-0.4,0.1c0,0-2.2,1-2.9,3.4
		c0,0-1.4-1.1-2.5-0.4c-1.2,0.7-2,2.9-0.2,4.3c0,0-1,3.5,1.7,3.9c2.7,0.4,8.5,0.1,8.5,0.1l0,0c7.4,0.2,5.9-3.8,5.9-3.8
		S278.2,5.4,275.4,3.8z"/>
	<path class="st1" d="M85.6,184.3c-6.9-4-10.5,4.2-10.5,4.2c-5.3-12.4-14.1-9-14.1-9l-0.9,0.2c0,0-5.2,2.4-6.9,8.3
		c0,0-3.3-2.8-6.2-1c-2.9,1.8-4.8,6.9-0.5,10.4c0,0-2.4,8.4,4.1,9.4c6.6,1.1,20.4,0.3,20.4,0.3l0,0c17.9,0.4,14.3-9.2,14.3-9.2
		S92.4,188.3,85.6,184.3z"/>
</g>
<g id="foreground">
	<path class="st2" d="M102.2,21.8c-14.9-8.7-22.9,9.1-22.9,9.1C67.9,4,48.7,11.4,48.7,11.4l-1.9,0.4c0,0-11.4,5.3-15.1,18
		c0,0-7.1-6-13.4-2.1c-6.3,3.9-10.5,15-1.1,22.6c0,0-5.3,18.2,9,20.5c14.3,2.3,44.4,0.6,44.4,0.6l0,0c38.8,0.9,31.1-19.9,31.1-19.9
		S117.1,30.5,102.2,21.8z"/>
	<path class="st2" d="M233.7,198.3c-11.6-6.7-17.8,7.1-17.8,7.1c-8.9-20.9-23.8-15.2-23.8-15.2l-1.5,0.3c0,0-8.8,4.1-11.7,14
		c0,0-5.5-4.7-10.4-1.7c-4.9,3-8.1,11.6-0.9,17.6c0,0-4.1,14.1,7,15.9c11.1,1.8,34.4,0.5,34.4,0.5l0,0c30.1,0.7,24.1-15.5,24.1-15.5
		S245.3,205,233.7,198.3z"/>
	<path class="st2" d="M365.8,104.5c-11.6-6.7-17.8,7.1-17.8,7.1c-8.9-20.9-23.8-15.2-23.8-15.2l-1.5,0.3c0,0-8.8,4.1-11.7,14
		c0,0-5.5-4.7-10.4-1.7c-4.9,3-8.1,11.6-0.9,17.6c0,0-4.1,14.1,7,15.9c11.1,1.8,34.4,0.5,34.4,0.5l0,0c30.1,0.7,24.1-15.5,24.1-15.5
		S377.4,111.3,365.8,104.5z"/>
</g>
</svg>
