<?xml version="1.0" encoding="utf-8"?>
<!-- Generator: Adobe Illustrator 20.0.0, SVG Export Plug-In . SVG Version: 6.00 Build 0)  -->
<svg version="1.1" xmlns="http://www.w3.org/2000/svg" xmlns:xlink="http://www.w3.org/1999/xlink" x="0px" y="0px"
	 viewBox="0 0 66 17.2" style="enable-background:new 0 0 66 17.2;" xml:space="preserve">
<style type="text/css">
	.st0{fill:#353535;}
</style>
<g id="Layer_1">
</g>
<g id="Layer_1_copy">
	<path class="st0" d="M29.6,6c-0.5,0-0.9,0.4-0.9,0.9c0,0.3,0.1,0.5,0.3,0.7l0,0L32,9.1C31,6.2,29.6,6,29.6,6z"/>
</g>
<g id="Layer_1_copy_2">
	<path class="st0" d="M36.6,6c0.5,0,0.9,0.4,0.9,0.9c0,0.3-0.1,0.5-0.3,0.7l0,0l-2.8,1.5C35.3,6.2,36.6,6,36.6,6z"/>
	<path class="st0" d="M34.7,3.9c0-0.9-0.7-1.6-1.6-1.6c-0.9,0-1.6,0.7-1.6,1.6c0,0.1,0,0.2,0,0.4h0C31.8,6,33.1,9,33.1,9
		c0.9-2,1.5-4.7,1.5-4.7h0C34.7,4.1,34.7,4,34.7,3.9z"/>
	<path class="st0" d="M17.2,10.4C7.4,5.5,3.6,7,3.6,7l0,0C3.2,7.2,2.8,7.6,2.8,8.2c0,0.7,0.6,1.2,1.2,1.2c0.6,0,1.1-0.4,1.2-1
		c0-0.2,0.2-0.3,0.4-0.4c0.8,0,2.8-0.5,7.3,1.2c3.2,1.2,5.8,2.8,7.6,3.1c1.7,0.3,3.6,0.3,5.2,0c4.7-0.9,5.7-2.5,5.7-2.5
		S25.8,14.7,17.2,10.4z"/>
	<path class="st0" d="M49,10.4C58.9,5.5,62.6,7,62.6,7l0,0c0.5,0.2,0.8,0.6,0.8,1.2c0,0.7-0.6,1.2-1.2,1.2c-0.6,0-1.1-0.4-1.2-1
		c0-0.2-0.2-0.3-0.4-0.3c-0.8,0-2.7-0.5-7.3,1.2c-3.2,1.2-5.8,2.8-7.7,3.1c-1.7,0.3-3.6,0.3-5.2,0c-4.7-0.9-5.7-2.5-5.7-2.5
		S40.4,14.7,49,10.4z"/>
	<path class="st0" d="M23.6,10c0,0,2.1,2.7,7.2-0.2C30.8,9.7,25.6,8.7,23.6,10z"/>
	<path class="st0" d="M42.6,10c0,0-2.1,2.7-7.2-0.2C35.4,9.7,40.7,8.7,42.6,10z"/>
	<circle class="st0" cx="33.1" cy="9.9" r="0.6"/>
</g>
<g id="Layer_4">
	<polygon class="st0" points="33.1,11.3 34,13.4 33.1,15.4 32.2,13.4 	"/>
</g>
</svg>
