<?xml version="1.0" encoding="utf-8"?>
<!-- Generator: Adobe Illustrator 20.0.0, SVG Export Plug-In . SVG Version: 6.00 Build 0)  -->
<svg version="1.1" id="Layer_1" xmlns="http://www.w3.org/2000/svg" xmlns:xlink="http://www.w3.org/1999/xlink" x="0px" y="0px"
	 viewBox="0 0 150 150" style="enable-background:new 0 0 150 150;" xml:space="preserve">
<style type="text/css">
	.st0{fill:#B2C9E9;}
	.st1{fill:#B2C9E7;}
	.st2{fill:#B3C9E6;}
	.st3{fill:#B3C9E5;}
	.st4{fill:#B4C9E4;}
	.st5{fill:#B4C8E3;}
	.st6{fill:#B4C8E2;}
	.st7{fill:#B5C8E1;}
	.st8{fill:#B5C8E0;}
	.st9{fill:#B6C8DF;}
	.st10{fill:#B6C8DE;}
	.st11{fill:#B6C8DD;}
	.st12{fill:#B7C7DD;}
	.st13{fill:#B7C7DC;}
	.st14{fill:#B7C7DB;}
	.st15{fill:#B8C7DA;}
	.st16{fill:#B8C7D9;}
	.st17{fill:#B9C7D8;}
	.st18{fill:#B9C7D7;}
	.st19{fill:#BAC6D6;}
	.st20{fill:#BAC6D5;}
	.st21{fill:#BAC6D4;}
	.st22{fill:#BBC6D3;}
	.st23{fill:#BBC6D2;}
	.st24{fill:#BBC6D1;}
	.st25{fill:#BCC6D1;}
	.st26{fill:#BCC5D0;}
	.st27{fill:#BCC5CF;}
	.st28{fill:#BDC5CF;}
	.st29{fill:#BDC5CE;}
	.st30{fill:#BDC5CD;}
	.st31{fill:#BDC5CC;}
	.st32{fill:#BEC5CC;}
	.st33{fill:#BEC5CB;}
	.st34{fill:#BEC5CA;}
	.st35{fill:#BFC4CA;}
	.st36{fill:#BFC4C9;}
	.st37{fill:#BFC4C8;}
	.st38{fill:#BFC4C7;}
	.st39{fill:#C0C4C7;}
	.st40{fill:#C0C4C6;}
	.st41{fill:#C0C4C5;}
	.st42{fill:#C1C4C5;}
	.st43{fill:#C1C3C4;}
	.st44{fill:#C1C3C3;}
	.st45{fill:#C2C3C2;}
	.st46{fill:#C2C3C1;}
	.st47{fill:#C2C3C0;}
	.st48{fill:#C3C3C0;}
	.st49{fill:#C3C3BF;}
	.st50{fill:#C3C3BE;}
	.st51{fill:#C3C2BE;}
	.st52{fill:#C4C2BD;}
	.st53{fill:#C4C2BC;}
	.st54{fill:#C4C2BB;}
	.st55{fill:#C5C2BA;}
	.st56{fill:#C5C2B9;}
	.st57{fill:#C5C1B8;}
	.st58{fill:#C6C1B7;}
	.st59{fill:#C6C1B6;}
	.st60{fill:#C6C1B5;}
	.st61{fill:#C7C1B4;}
	.st62{fill:#C7C1B3;}
	.st63{fill:#C7C0B2;}
	.st64{fill:#C8C0B2;}
	.st65{fill:#C8C0B1;}
	.st66{fill:#C8C0B0;}
	.st67{fill:#C8C0AF;}
	.st68{fill:#C9C0AF;}
	.st69{fill:#C9C0AE;}
	.st70{fill:#C9BFAD;}
	.st71{fill:#C9BFAC;}
	.st72{fill:#CABFAC;}
	.st73{fill:#CABFAB;}
	.st74{fill:#CABFAA;}
	.st75{fill:#CBBFA9;}
	.st76{fill:#CBBFA8;}
	.st77{fill:#CBBEA7;}
	.st78{fill:#CBBEA6;}
	.st79{fill:#CCBEA5;}
	.st80{fill:#CCBEA4;}
	.st81{fill:#CCBEA3;}
	.st82{fill:#CDBEA2;}
	.st83{fill:#CDBDA2;}
	.st84{fill:#CDBDA1;}
	.st85{fill:#CDBDA0;}
	.st86{fill:#CDBD9F;}
	.st87{fill:#CEBD9F;}
	.st88{fill:#CEBD9E;}
	.st89{fill:#CEBD9D;}
	.st90{fill:#CEBC9D;}
	.st91{fill:#CFBC9C;}
	.st92{fill:#CFBC9B;}
	.st93{fill:#CFBC9A;}
	.st94{fill:#CFBC99;}
	.st95{fill:#D0BC98;}
	.st96{fill:#D0BB97;}
	.st97{fill:#D0BB96;}
	.st98{fill:#D0BB95;}
	.st99{fill:#D1BB95;}
	.st100{fill:#D1BB94;}
	.st101{fill:#D1BB93;}
	.st102{fill:#D2BA92;}
	.st103{fill:#D2BA91;}
	.st104{fill:#D2BA90;}
	.st105{fill:#D2BA8F;}
	.st106{fill:#D3BA8E;}
	.st107{fill:#D3BA8D;}
	.st108{fill:#D3B98C;}
	.st109{fill:#D4B98B;}
	.st110{fill:#D4B98A;}
	.st111{fill:#D4B989;}
	.st112{fill:#D4B988;}
	.st113{fill:#D5B987;}
	.st114{fill:#D5B887;}
	.st115{fill:#D5B886;}
	.st116{fill:#D5B885;}
	.st117{fill:#D6B884;}
	.st118{fill:#D6B883;}
	.st119{fill:#D6B782;}
	.st120{fill:#D6B781;}
	.st121{fill:#D7B781;}
	.st122{fill:#D7B780;}
	.st123{fill:#D7B77F;}
	.st124{fill:#D7B77E;}
	.st125{fill:#D8B77D;}
	.st126{fill:#D8B67C;}
	.st127{fill:#D8B67B;}
	.st128{fill:#D8B67A;}
	.st129{fill:#D9B67A;}
	.st130{fill:#D9B679;}
	.st131{fill:#D9B678;}
	.st132{fill:#D9B577;}
	.st133{fill:#DAB576;}
	.st134{fill:#DAB575;}
	.st135{fill:#DAB574;}
	.st136{fill:#DAB573;}
	.st137{fill:#DBB572;}
	.st138{fill:#DBB472;}
	.st139{fill:#DBB471;}
	.st140{fill:#DBB470;}
	.st141{fill:#DBB46F;}
	.st142{fill:#DCB46F;}
	.st143{fill:#DCB46E;}
	.st144{fill:#DCB46D;}
	.st145{fill:#DCB46C;}
	.st146{fill:#DCB36C;}
	.st147{fill:#DDB36B;}
	.st148{fill:#DDB36A;}
	.st149{fill:#DDB369;}
	.st150{fill:#DDB368;}
	.st151{fill:#DEB367;}
	.st152{fill:#DEB266;}
	.st153{fill:#DEB265;}
	.st154{fill:#DEB264;}
	.st155{fill:#DEB263;}
	.st156{fill:#DFB262;}
	.st157{fill:#DFB261;}
	.st158{fill:#DFB260;}
	.st159{fill:#DFB160;}
	.st160{fill:#DFB15F;}
	.st161{fill:#E0B15E;}
	.st162{fill:#E0B15D;}
	.st163{fill:#E0B15C;}
	.st164{fill:#E0B15B;}
	.st165{fill:#E0B05A;}
	.st166{fill:#E1B059;}
	.st167{fill:#E1B058;}
	.st168{fill:#E1B057;}
	.st169{fill:#E1B056;}
	.st170{fill:#E1B055;}
	.st171{fill:#E2B054;}
	.st172{fill:#E2AF53;}
	.st173{fill:#E2AF52;}
	.st174{fill:#E2AF51;}
	.st175{fill:#E3AF50;}
	.st176{fill:#E3AF4F;}
	.st177{fill:#E3AF4E;}
	.st178{fill:#E3AF4D;}
	.st179{fill:#E3AE4C;}
	.st180{fill:#E3AE4B;}
	.st181{fill:#E4AE4A;}
	.st182{fill:#E4AE49;}
	.st183{fill:#E4AE48;}
	.st184{fill:#E4AE47;}
	.st185{fill:#E4AD46;}
	.st186{fill:#E5AD45;}
	.st187{fill:#E5AD44;}
	.st188{fill:#E5AD43;}
	.st189{fill:#E5AD42;}
	.st190{fill:#E5AD41;}
	.st191{fill:#E6AD40;}
	.st192{fill:#E6AD3F;}
	.st193{fill:#E6AC3F;}
	.st194{fill:#E6AC3E;}
	.st195{fill:#E6AC3D;}
	.st196{fill:#E6AC3C;}
	.st197{fill:#E7AC3B;}
	.st198{fill:#E7AC3A;}
	.st199{fill:#E7AC39;}
	.st200{fill:#E7AC38;}
	.st201{fill:#E7AB37;}
	.st202{fill:#E7AB36;}
	.st203{fill:#E8AB35;}
	.st204{fill:#E8AB34;}
	.st205{fill:#E8AB33;}
	.st206{fill:#E8AB32;}
	.st207{fill:#E8AB31;}
	.st208{fill:#E8AB30;}
	.st209{fill:#E9AA2F;}
	.st210{fill:#E9AA2E;}
	.st211{fill:#E9AA2D;}
	.st212{fill:#E9AA2C;}
	.st213{fill:#E9AA2B;}
	.st214{fill:#E9AA2A;}
	.st215{fill:#E9AA29;}
	.st216{fill:#EAA928;}
	.st217{fill:#EAA927;}
	.st218{fill:#EAA926;}
	.st219{fill:#E8E33B;}
	.st220{opacity:0.38;fill:#8C8C8C;}
	.st221{fill:#E5E5E5;}
	.st222{fill:#2D2D2D;}
	.st223{fill:#DFDDE0;}
	.st224{opacity:0.44;fill:#8C8C8C;}
	.st225{fill:#545554;}
	.st226{fill:#686868;}
	.st227{fill:#E9E852;}
	.st228{fill:#F9F9FA;}
	.st229{fill:#434444;}
	.st230{fill:#C12430;}
	.st231{fill:#C02230;}
	.st232{fill:#2B2B2B;}
	.st233{fill:#DCDCDC;}
	.st234{fill:#B4B385;}
	.st235{fill:#506552;}
	.st236{fill:#375B55;}
	.st237{fill:#695561;}
	.st238{fill:#274F49;}
	.st239{fill:#45587F;}
	.st240{opacity:0.35;fill:#8C8C8C;}
	.st241{opacity:0.47;fill:#E9E852;}
</style>
<g id="gradientBackgroundBigCircle">
	<circle class="st0" cx="75.2" cy="75.3" r="74.7"/>
	<circle class="st1" cx="75" cy="75.4" r="74.4"/>
	<circle class="st2" cx="74.9" cy="75.4" r="74.2"/>
	<circle class="st3" cx="74.7" cy="75.4" r="73.9"/>
	<circle class="st4" cx="74.5" cy="75.4" r="73.7"/>
	<circle class="st5" cx="74.4" cy="75.5" r="73.4"/>
	<circle class="st6" cx="74.2" cy="75.5" r="73.2"/>
	<circle class="st7" cx="74" cy="75.5" r="72.9"/>
	<circle class="st8" cx="73.9" cy="75.5" r="72.7"/>
	<circle class="st8" cx="73.7" cy="75.5" r="72.4"/>
	<circle class="st9" cx="73.5" cy="75.6" r="72.2"/>
	<circle class="st10" cx="73.4" cy="75.6" r="71.9"/>
	<circle class="st11" cx="73.2" cy="75.6" r="71.7"/>
	<circle class="st12" cx="73" cy="75.6" r="71.4"/>
	<circle class="st13" cx="72.9" cy="75.7" r="71.2"/>
	<circle class="st14" cx="72.7" cy="75.7" r="70.9"/>
	<circle class="st15" cx="72.5" cy="75.7" r="70.7"/>
	<circle class="st15" cx="72.4" cy="75.7" r="70.5"/>
	<circle class="st16" cx="72.2" cy="75.8" r="70.2"/>
	<circle class="st17" cx="72" cy="75.8" r="70"/>
	<circle class="st18" cx="71.9" cy="75.8" r="69.7"/>
	<circle class="st18" cx="71.7" cy="75.8" r="69.5"/>
	<circle class="st19" cx="71.5" cy="75.9" r="69.2"/>
	<circle class="st20" cx="71.4" cy="75.9" r="69"/>
	<circle class="st21" cx="71.2" cy="75.9" r="68.7"/>
	<circle class="st21" cx="71" cy="75.9" r="68.5"/>
	<circle class="st22" cx="70.9" cy="75.9" r="68.2"/>
	<circle class="st23" cx="70.7" cy="76" r="68"/>
	<circle class="st24" cx="70.5" cy="76" r="67.7"/>
	<circle class="st25" cx="70.4" cy="76" r="67.5"/>
	<circle class="st26" cx="70.2" cy="76" r="67.2"/>
	<circle class="st27" cx="70.1" cy="76.1" r="67"/>
	<circle class="st28" cx="69.9" cy="76.1" r="66.7"/>
	<circle class="st29" cx="69.7" cy="76.1" r="66.5"/>
	<circle class="st30" cx="69.6" cy="76.1" r="66.2"/>
	<circle class="st31" cx="69.4" cy="76.2" r="66"/>
	<circle class="st32" cx="69.2" cy="76.2" r="65.7"/>
	<circle class="st33" cx="69.1" cy="76.2" r="65.5"/>
	<circle class="st34" cx="68.9" cy="76.2" r="65.2"/>
	<circle class="st35" cx="68.7" cy="76.2" r="65"/>
	<circle class="st36" cx="68.6" cy="76.3" r="64.7"/>
	<circle class="st37" cx="68.4" cy="76.3" r="64.5"/>
	<circle class="st38" cx="68.2" cy="76.3" r="64.3"/>
	<circle class="st39" cx="68.1" cy="76.3" r="64"/>
	<circle class="st40" cx="67.9" cy="76.4" r="63.8"/>
	<circle class="st41" cx="67.7" cy="76.4" r="63.5"/>
	<circle class="st42" cx="67.6" cy="76.4" r="63.3"/>
	<circle class="st43" cx="67.4" cy="76.4" r="63"/>
	<circle class="st44" cx="67.2" cy="76.5" r="62.8"/>
	<circle class="st44" cx="67.1" cy="76.5" r="62.5"/>
	<circle class="st45" cx="66.9" cy="76.5" r="62.3"/>
	<circle class="st46" cx="66.7" cy="76.5" r="62"/>
	<circle class="st47" cx="66.6" cy="76.6" r="61.8"/>
	<circle class="st48" cx="66.4" cy="76.6" r="61.5"/>
	<circle class="st49" cx="66.2" cy="76.6" r="61.3"/>
	<circle class="st50" cx="66.1" cy="76.6" r="61"/>
	<circle class="st51" cx="65.9" cy="76.6" r="60.8"/>
	<circle class="st52" cx="65.7" cy="76.7" r="60.5"/>
	<circle class="st53" cx="65.6" cy="76.7" r="60.3"/>
	<circle class="st54" cx="65.4" cy="76.7" r="60"/>
	<circle class="st54" cx="65.2" cy="76.7" r="59.8"/>
	<circle class="st55" cx="65.1" cy="76.8" r="59.5"/>
	<circle class="st56" cx="64.9" cy="76.8" r="59.3"/>
	<circle class="st56" cx="64.7" cy="76.8" r="59"/>
	<circle class="st57" cx="64.6" cy="76.8" r="58.8"/>
	<circle class="st58" cx="64.4" cy="76.9" r="58.6"/>
	<circle class="st58" cx="64.2" cy="76.9" r="58.3"/>
	<circle class="st59" cx="64.1" cy="76.9" r="58.1"/>
	<circle class="st60" cx="63.9" cy="76.9" r="57.8"/>
	<circle class="st61" cx="63.7" cy="77" r="57.6"/>
	<circle class="st61" cx="63.6" cy="77" r="57.3"/>
	<circle class="st62" cx="63.4" cy="77" r="57.1"/>
	<circle class="st63" cx="63.2" cy="77" r="56.8"/>
	<circle class="st64" cx="63.1" cy="77" r="56.6"/>
	<circle class="st65" cx="62.9" cy="77.1" r="56.3"/>
	<circle class="st66" cx="62.7" cy="77.1" r="56.1"/>
	<circle class="st67" cx="62.6" cy="77.1" r="55.8"/>
	<circle class="st68" cx="62.4" cy="77.1" r="55.6"/>
	<circle class="st69" cx="62.2" cy="77.2" r="55.3"/>
	<circle class="st70" cx="62.1" cy="77.2" r="55.1"/>
	<circle class="st71" cx="61.9" cy="77.2" r="54.8"/>
	<circle class="st72" cx="61.7" cy="77.2" r="54.6"/>
	<circle class="st73" cx="61.6" cy="77.3" r="54.3"/>
	<circle class="st74" cx="61.4" cy="77.3" r="54.1"/>
	<circle class="st74" cx="61.3" cy="77.3" r="53.8"/>
	<circle class="st75" cx="61.1" cy="77.3" r="53.6"/>
	<circle class="st76" cx="60.9" cy="77.3" r="53.3"/>
	<circle class="st77" cx="60.8" cy="77.4" r="53.1"/>
	<circle class="st77" cx="60.6" cy="77.4" r="52.9"/>
	<circle class="st78" cx="60.4" cy="77.4" r="52.6"/>
	<circle class="st79" cx="60.3" cy="77.4" r="52.4"/>
	<circle class="st79" cx="60.1" cy="77.5" r="52.1"/>
	<circle class="st80" cx="59.9" cy="77.5" r="51.9"/>
	<circle class="st81" cx="59.8" cy="77.5" r="51.6"/>
	<circle class="st82" cx="59.6" cy="77.5" r="51.4"/>
	<circle class="st83" cx="59.4" cy="77.6" r="51.1"/>
	<circle class="st84" cx="59.3" cy="77.6" r="50.9"/>
	<circle class="st85" cx="59.1" cy="77.6" r="50.6"/>
	<circle class="st86" cx="58.9" cy="77.6" r="50.4"/>
	<circle class="st87" cx="58.8" cy="77.7" r="50.1"/>
	<circle class="st88" cx="58.6" cy="77.7" r="49.9"/>
	<circle class="st89" cx="58.4" cy="77.7" r="49.6"/>
	<circle class="st90" cx="58.3" cy="77.7" r="49.4"/>
	<circle class="st91" cx="58.1" cy="77.7" r="49.1"/>
	<circle class="st92" cx="57.9" cy="77.8" r="48.9"/>
	<circle class="st93" cx="57.8" cy="77.8" r="48.6"/>
	<circle class="st93" cx="57.6" cy="77.8" r="48.4"/>
	<circle class="st94" cx="57.4" cy="77.8" r="48.1"/>
	<circle class="st95" cx="57.3" cy="77.9" r="47.9"/>
	<circle class="st95" cx="57.1" cy="77.9" r="47.6"/>
	<circle class="st96" cx="56.9" cy="77.9" r="47.4"/>
	<circle class="st97" cx="56.8" cy="77.9" r="47.2"/>
	<circle class="st98" cx="56.6" cy="78" r="46.9"/>
	<circle class="st99" cx="56.4" cy="78" r="46.7"/>
	<circle class="st100" cx="56.3" cy="78" r="46.4"/>
	<circle class="st101" cx="56.1" cy="78" r="46.2"/>
	<circle class="st101" cx="55.9" cy="78.1" r="45.9"/>
	<circle class="st102" cx="55.8" cy="78.1" r="45.7"/>
	<circle class="st103" cx="55.6" cy="78.1" r="45.4"/>
	<circle class="st103" cx="55.4" cy="78.1" r="45.2"/>
	<circle class="st104" cx="55.3" cy="78.1" r="44.9"/>
	<circle class="st105" cx="55.1" cy="78.2" r="44.7"/>
	<circle class="st106" cx="54.9" cy="78.2" r="44.4"/>
	<circle class="st106" cx="54.8" cy="78.2" r="44.2"/>
	<circle class="st107" cx="54.6" cy="78.2" r="43.9"/>
	<circle class="st108" cx="54.4" cy="78.3" r="43.7"/>
	<circle class="st108" cx="54.3" cy="78.3" r="43.4"/>
	<circle class="st109" cx="54.1" cy="78.3" r="43.2"/>
	<circle class="st110" cx="53.9" cy="78.3" r="42.9"/>
	<circle class="st110" cx="53.8" cy="78.4" r="42.7"/>
	<circle class="st111" cx="53.6" cy="78.4" r="42.4"/>
	<circle class="st112" cx="53.4" cy="78.4" r="42.2"/>
	<circle class="st113" cx="53.3" cy="78.4" r="41.9"/>
	<circle class="st114" cx="53.1" cy="78.4" r="41.7"/>
	<circle class="st115" cx="52.9" cy="78.5" r="41.4"/>
	<circle class="st116" cx="52.8" cy="78.5" r="41.2"/>
	<circle class="st116" cx="52.6" cy="78.5" r="41"/>
	<circle class="st117" cx="52.5" cy="78.5" r="40.7"/>
	<circle class="st118" cx="52.3" cy="78.6" r="40.5"/>
	<circle class="st118" cx="52.1" cy="78.6" r="40.2"/>
	<circle class="st119" cx="52" cy="78.6" r="40"/>
	<circle class="st120" cx="51.8" cy="78.6" r="39.7"/>
	<circle class="st121" cx="51.6" cy="78.7" r="39.5"/>
	<circle class="st122" cx="51.5" cy="78.7" r="39.2"/>
	<circle class="st123" cx="51.3" cy="78.7" r="39"/>
	<circle class="st124" cx="51.1" cy="78.7" r="38.7"/>
	<circle class="st124" cx="51" cy="78.8" r="38.5"/>
	<circle class="st125" cx="50.8" cy="78.8" r="38.2"/>
	<circle class="st126" cx="50.6" cy="78.8" r="38"/>
	<circle class="st126" cx="50.5" cy="78.8" r="37.7"/>
	<circle class="st127" cx="50.3" cy="78.8" r="37.5"/>
	<circle class="st128" cx="50.1" cy="78.9" r="37.2"/>
	<circle class="st129" cx="50" cy="78.9" r="37"/>
	<circle class="st130" cx="49.8" cy="78.9" r="36.7"/>
	<circle class="st131" cx="49.6" cy="78.9" r="36.5"/>
	<circle class="st132" cx="49.5" cy="79" r="36.2"/>
	<circle class="st132" cx="49.3" cy="79" r="36"/>
	<circle class="st133" cx="49.1" cy="79" r="35.7"/>
	<circle class="st134" cx="49" cy="79" r="35.5"/>
	<circle class="st134" cx="48.8" cy="79.1" r="35.3"/>
	<circle class="st135" cx="48.6" cy="79.1" r="35"/>
	<circle class="st136" cx="48.5" cy="79.1" r="34.8"/>
	<circle class="st137" cx="48.3" cy="79.1" r="34.5"/>
	<circle class="st138" cx="48.1" cy="79.2" r="34.3"/>
	<circle class="st139" cx="48" cy="79.2" r="34"/>
	<circle class="st140" cx="47.8" cy="79.2" r="33.8"/>
	<circle class="st141" cx="47.6" cy="79.2" r="33.5"/>
	<circle class="st142" cx="47.5" cy="79.2" r="33.3"/>
	<circle class="st143" cx="47.3" cy="79.3" r="33"/>
	<circle class="st144" cx="47.1" cy="79.3" r="32.8"/>
	<circle class="st145" cx="47" cy="79.3" r="32.5"/>
	<circle class="st146" cx="46.8" cy="79.3" r="32.3"/>
	<circle class="st147" cx="46.6" cy="79.4" r="32"/>
	<circle class="st148" cx="46.5" cy="79.4" r="31.8"/>
	<circle class="st149" cx="46.3" cy="79.4" r="31.5"/>
	<circle class="st149" cx="46.1" cy="79.4" r="31.3"/>
	<circle class="st150" cx="46" cy="79.5" r="31"/>
	<circle class="st151" cx="45.8" cy="79.5" r="30.8"/>
	<circle class="st152" cx="45.6" cy="79.5" r="30.5"/>
	<circle class="st153" cx="45.5" cy="79.5" r="30.3"/>
	<circle class="st153" cx="45.3" cy="79.6" r="30"/>
	<circle class="st154" cx="45.1" cy="79.6" r="29.8"/>
	<circle class="st155" cx="45" cy="79.6" r="29.6"/>
	<circle class="st156" cx="44.8" cy="79.6" r="29.3"/>
	<circle class="st157" cx="44.6" cy="79.6" r="29.1"/>
	<circle class="st158" cx="44.5" cy="79.7" r="28.8"/>
	<circle class="st159" cx="44.3" cy="79.7" r="28.6"/>
	<circle class="st160" cx="44.1" cy="79.7" r="28.3"/>
	<circle class="st161" cx="44" cy="79.7" r="28.1"/>
	<circle class="st162" cx="43.8" cy="79.8" r="27.8"/>
	<circle class="st163" cx="43.7" cy="79.8" r="27.6"/>
	<circle class="st164" cx="43.5" cy="79.8" r="27.3"/>
	<circle class="st164" cx="43.3" cy="79.8" r="27.1"/>
	<circle class="st165" cx="43.2" cy="79.9" r="26.8"/>
	<circle class="st166" cx="43" cy="79.9" r="26.6"/>
	<circle class="st167" cx="42.8" cy="79.9" r="26.3"/>
	<circle class="st168" cx="42.7" cy="79.9" r="26.1"/>
	<circle class="st169" cx="42.5" cy="79.9" r="25.8"/>
	<circle class="st170" cx="42.3" cy="80" r="25.6"/>
	<circle class="st171" cx="42.2" cy="80" r="25.3"/>
	<circle class="st172" cx="42" cy="80" r="25.1"/>
	<circle class="st172" cx="41.8" cy="80" r="24.8"/>
	<circle class="st173" cx="41.7" cy="80.1" r="24.6"/>
	<circle class="st174" cx="41.5" cy="80.1" r="24.3"/>
	<circle class="st175" cx="41.3" cy="80.1" r="24.1"/>
	<circle class="st176" cx="41.2" cy="80.1" r="23.8"/>
	<circle class="st177" cx="41" cy="80.2" r="23.6"/>
	<circle class="st178" cx="40.8" cy="80.2" r="23.4"/>
	<circle class="st179" cx="40.7" cy="80.2" r="23.1"/>
	<circle class="st180" cx="40.5" cy="80.2" r="22.9"/>
	<circle class="st181" cx="40.3" cy="80.3" r="22.6"/>
	<circle class="st181" cx="40.2" cy="80.3" r="22.4"/>
	<circle class="st182" cx="40" cy="80.3" r="22.1"/>
	<circle class="st183" cx="39.8" cy="80.3" r="21.9"/>
	<circle class="st184" cx="39.7" cy="80.3" r="21.6"/>
	<circle class="st185" cx="39.5" cy="80.4" r="21.4"/>
	<circle class="st186" cx="39.3" cy="80.4" r="21.1"/>
	<circle class="st187" cx="39.2" cy="80.4" r="20.9"/>
	<circle class="st188" cx="39" cy="80.4" r="20.6"/>
	<circle class="st189" cx="38.8" cy="80.5" r="20.4"/>
	<circle class="st190" cx="38.7" cy="80.5" r="20.1"/>
	<circle class="st191" cx="38.5" cy="80.5" r="19.9"/>
	<circle class="st192" cx="38.3" cy="80.5" r="19.6"/>
	<circle class="st193" cx="38.2" cy="80.6" r="19.4"/>
	<circle class="st194" cx="38" cy="80.6" r="19.1"/>
	<circle class="st195" cx="37.8" cy="80.6" r="18.9"/>
	<circle class="st196" cx="37.7" cy="80.6" r="18.6"/>
	<circle class="st197" cx="37.5" cy="80.7" r="18.4"/>
	<circle class="st198" cx="37.3" cy="80.7" r="18.1"/>
	<circle class="st199" cx="37.2" cy="80.7" r="17.9"/>
	<circle class="st200" cx="37" cy="80.7" r="17.7"/>
	<circle class="st201" cx="36.8" cy="80.7" r="17.4"/>
	<circle class="st202" cx="36.7" cy="80.8" r="17.2"/>
	<circle class="st203" cx="36.5" cy="80.8" r="16.9"/>
	<circle class="st204" cx="36.3" cy="80.8" r="16.7"/>
	<circle class="st205" cx="36.2" cy="80.8" r="16.4"/>
	<circle class="st206" cx="36" cy="80.9" r="16.2"/>
	<circle class="st207" cx="35.8" cy="80.9" r="15.9"/>
	<circle class="st208" cx="35.7" cy="80.9" r="15.7"/>
	<circle class="st209" cx="35.5" cy="80.9" r="15.4"/>
	<circle class="st210" cx="35.4" cy="81" r="15.2"/>
	<circle class="st211" cx="35.2" cy="81" r="14.9"/>
	<circle class="st212" cx="35" cy="81" r="14.7"/>
	<circle class="st213" cx="34.9" cy="81" r="14.4"/>
	<circle class="st214" cx="34.7" cy="81" r="14.2"/>
	<circle class="st215" cx="34.5" cy="81.1" r="13.9"/>
	<circle class="st216" cx="34.4" cy="81.1" r="13.7"/>
	<circle class="st217" cx="34.2" cy="81.1" r="13.4"/>
	<circle class="st217" cx="34" cy="81.1" r="13.2"/>
	<circle class="st218" cx="33.9" cy="81.2" r="12.9"/>
</g>
<circle id="sun" class="st219" cx="30.9" cy="73.4" r="9.3"/>
<path id="fogMiddle_1_" class="st220" d="M15.9,83c1.1,8.2,3.8,15.9,7.8,22.7c1.9-0.2,3.9-1,6.1-2.7c8.1-6.3,10.9,0,10.9,0
	s-6.3,4.5,0,7.2c6.3,2.7,13.6-5,13.6-5s10-10.6,20.4-5c0,0-14,6.7,0,10.6c14,3.9,20.8-8,29.6-6.1c8.8,1.9,17.3,6.9,17.3,6.9
	c7.7-10,12.4-22.6,12.4-36.2c0-2.6-0.2-5.1-0.5-7.6C78.8,65.2,39.3,74.7,15.9,83z"/>
<polygon id="tourHouseBase" class="st221" points="96.7,89.7 96.7,75 90.8,70.9 90.8,67.3 85.6,67.3 85.6,70.5 79,75.8 79,90.2 "/>
<rect id="tourHouseWindow" x="81.4" y="77" class="st222" width="3.1" height="4.1"/>
<rect id="chimney" x="85.6" y="67.3" class="st223" width="5.2" height="22.2"/>
<path id="fogBack_1_" class="st224" d="M27.6,39.3c-7.6,10-12.2,22.5-12.2,36c0,8.9,2,17.4,5.5,25l3.5,5.2c1.7-0.3,3.5-1.1,5.4-2.6
	c8.1-6.3,10.9,0,10.9,0s-6.3,4.5,0,7.2c6.3,2.7,13.6-5,13.6-5s10-10.6,20.4-5c0,0-14,6.7,0,10.6c14,3.9,20.8-8,29.6-6.1
	c8.8,1.9,17.3,6.9,17.3,6.9c7.7-10,12.4-22.6,12.4-36.2c0-7.8-1.5-15.3-4.3-22.2c-11.3-1-26-2-42.2-2.2
	C66.7,50.6,43.5,44.5,27.6,39.3z"/>
<path id="lightSocket_2_" class="st225" d="M73.9,45.5c0,0,2.3,1.6,2.3,2.5c0,0.9-2.3,2.9-2.3,2.9V45.5z"/>
<path id="lightArm_2_" class="st226" d="M76.1,43.4l-0.8,4.3c0,0,0.2,0.8,0.8,0.3l1.8-4L76.1,43.4z"/>
<path id="lightBulb_2_" class="st227" d="M73.9,50.6c0,0-4.6-2.1,0-4.8V50.6z"/>
<path id="lighthouseBaseStroke_1_" class="st228" d="M75.3,90.4c2.9,0,5.8,0.4,8.5,1c-1-14.7-2.1-32.5-2.1-32.5
	c-2.6-0.7-4.8-0.7-7-0.6c-2.2-0.2-4.4-0.1-7,0.6c0,0-1.1,18.1-2.2,32.9C68.7,90.9,71.9,90.4,75.3,90.4z"/>
<path id="lighthouseWindow" class="st229" d="M79.6,44.4L79.6,44.4v0.9l-0.7-0.1v-0.9L79.6,44.4c-0.4-0.5-1-0.7-1.6-0.7h-6.4
	c-0.6,0-1.2,0.3-1.5,0.7h0.7v0.9l-0.7,0.1l0.1-0.8l-0.1-0.1c-0.3,0.4-0.6,0.9-0.6,1.4v6.5h10.6v-6.5C80.2,45.2,80,44.7,79.6,44.4z
	 M70.7,50.8l-0.8,0.1v-1h0.8V50.8z M70.7,48.8l-0.8,0.1v-1h0.8V48.8z M70.7,46.9L69.9,47v-1h0.8V46.9z M72.5,50.7h-0.9v-0.9h0.9
	V50.7z M72.5,48.8h-0.9V48h0.9V48.8z M72.5,46.8l-0.9,0.1V46h0.9V46.8z M72.5,45.1h-0.9v-0.9h0.9V45.1z M74.4,50.7h-0.9v-0.9
	l0.9-0.1V50.7z M74.4,48.8h-0.9V48l0.9-0.1V48.8z M74.4,46.9h-0.9V46l0.9-0.1V46.9z M74.4,45.1h-0.9v-0.9l0.9-0.1L74.4,45.1z
	 M76.2,50.7h-0.9v-1l0.9,0.1V50.7z M76.2,48.8h-0.9v-1l0.9,0.1V48.8z M76.2,46.9h-0.9v-1l0.9,0.1V46.9z M76.2,45.1h-0.9l0-1l0.9,0.1
	V45.1z M78.1,50.7h-0.9v-0.9h0.9V50.7z M78.1,48.8h-0.9V48h0.9V48.8z M78.1,46.9l-0.9-0.1V46h0.9V46.9z M78.1,45.1h-0.9v-0.9h0.9
	V45.1z M79.8,50.9L79,50.8v-0.9h0.8V50.9z M79.8,48.9L79,48.8V48h0.8V48.9z M79.8,47L79,46.9V46h0.8V47z"/>
<path id="topBase_1_" class="st230" d="M81.2,56.1c0,0,0.4-1.6,0.4-2.3c0.1-0.8-1.6-1.8-3.1-2.2c-1.4-0.4-6.8-0.8-9.8,1.2
	c-0.5,0.3-0.8,0.9-0.7,1.5c0,0.4,0.5,1.8,0.5,1.8H81.2z"/>
<path id="topRoof" class="st231" d="M75.8,39.7l0.4,0.2c0.5,0.2,0.9,0.5,1.3,0.8c0.3,0.2,0.6,0.4,0.8,0.7l2.8,3.3l-4.5-0.6
	c-1.2-0.2-2.5-0.2-3.7,0l-4.4,0.6l2.5-2.9c0,0,0,0,0.1-0.1c0.6-0.8,1.3-1.4,2.2-1.8l0.3-0.2C74.4,39.6,75.1,39.6,75.8,39.7z"/>
<path id="topPoint_1_" class="st231" d="M74.8,39.8c0,0,1.9-1.4,0-3.2C74.8,36.7,73,38.3,74.8,39.8"/>
<rect id="windowRight" x="68.9" y="77.5" class="st232" width="0.8" height="3.5"/>
<rect id="windowLeft" x="79.1" y="69" class="st232" width="0.8" height="3.5"/>
<polygon class="st228" points="67.6,58.9 81.8,58.9 83.4,55.8 66.1,55.8 "/>
<path id="railing" class="st228" d="M66.1,52.2v3.6h17.3v-3.6H66.1z M66.9,55.4h-0.4v-2.7h0.4V55.4z M68.1,55.4h-0.4v-2.7h0.4V55.4z
	 M69.3,55.4H69v-2.7h0.4V55.4z M70.6,55.4h-0.4v-2.7h0.4V55.4z M71.8,55.4h-0.4v-2.7h0.4V55.4z M73,55.4h-0.4v-2.7H73V55.4z
	 M74.3,55.4h-0.4v-2.7h0.4V55.4z M75.5,55.4h-0.4v-2.7h0.4V55.4z M76.7,55.4h-0.4v-2.7h0.4V55.4z M78,55.4h-0.4v-2.7H78V55.4z
	 M79.2,55.4h-0.4v-2.7h0.4V55.4z M80.4,55.4H80v-2.7h0.4V55.4z M81.6,55.4h-0.4v-2.7h0.4V55.4z M82.9,55.4h-0.4v-2.7h0.4V55.4z"/>
<path id="islandBase_1_" class="st233" d="M136.7,109.3c0,11-33.1,19.9-53.2,19.9s-44.4-8.9-44.4-19.9c0-5.5,12.2-12.7,18.8-16.3
	s15.6-3.6,25.6-3.6c9.8,0,31.6,2.1,38.1,5.6C128.5,98.6,136.7,103.7,136.7,109.3z"/>
<path id="grass_2_" class="st234" d="M78.1,96.3c0,0,5.2,0.7,5.7,9.1s23.3,3.9,23.3,3.9s7.7-7.1,14.8-2.5c7.1,4.6,7-7.5,7-7.5
	s-8.6-10.1-45.4-9.9s-23.8,7.3-23.8,7.3S60.5,99.9,78.1,96.3z"/>
<path id="grassDetail_2_" class="st235" d="M56.7,93.7c0,0-2.2-0.2-2-2.6c0,0,2.1,2.1,3.7,1.3c1.6-0.8,3.9-1.2,3.9-1.2
	s3.1-0.6,2-2.4c-1.1-1.7,0.4,0,0.4,0s0.7,1,0.6,2c0.3,0.1,0.6-1.2-0.2-2c0,0,0.4-0.2,1,1c0.6,1.2,0.3,1.3,0.3,1.3s-1.1,1.4,0.4,0.5
	c0.5-0.3,0.7,0.3-1.2,0.9c-0.8,0.3,14.3,1.3,12.7,1.7c-18.4,4-18.4-0.6-19.8-0.6C57.9,93.7,57.3,93.7,56.7,93.7z"/>
<path id="treetopBack" class="st236" d="M119.9,82.6c2-0.9,2.5-2.2,2.5-2.2s1.2-0.3-3.3-6.2c-4.5-5.9-8.9-2.8-12.3-2.2
	c-3.4,0.6-6.2,5.8-5.1,6.2c0.6,0.2,1.3,1.4,1.8,2.4c0.4,0.7,1,1.2,1.8,1.4c0.8,0.2,1.9,0.6,2.6,1.4c1.2,1.6-0.9,2.8-0.4,4.4
	c0.4,1.6,3.7,2.5,3.8,3.3c0,0.3,0.3,0.5,0.7,0.6c0.8,0.2,1.6,0.1,2.2-0.4c0.6-0.4,1.6-0.9,3.1-0.6c2,0.4,1.9-1.6,1.7-2.5
	c0-0.3,0-0.5,0-0.8c0.2-1,0.4-3.1-0.8-2.3c0,0-2.2,0.1-1-0.3C118.3,84.4,118.6,83.2,119.9,82.6z"/>
<path id="treeTrunkBack" class="st237" d="M112.8,89.4c0,0,1.3,2.3,0.7,2.9h-0.9L112.8,89.4z"/>
<path id="treetopFront_2_" class="st238" d="M96.4,75.2c-2.2,0.3-3,1.5-3,1.5s-1.2,0,1.6,6.8c2.8,6.8,7.9,5,11.3,5.3
	c3.4,0.3,7.5-4,6.5-4.7c-0.5-0.4-0.9-1.7-1.2-2.8c-0.2-0.8-0.7-1.5-1.4-1.8c-0.8-0.4-1.7-1-2.1-2c-0.8-1.9,1.6-2.5,1.6-4.1
	c0-1.6-3-3.3-2.8-4.1c0.1-0.3-0.2-0.5-0.5-0.7c-0.7-0.4-1.5-0.5-2.3-0.2c-0.7,0.3-1.8,0.4-3.1-0.2c-1.8-0.9-2.2,1.1-2.3,1.9
	c0,0.3-0.1,0.5-0.2,0.8c-0.4,0.9-1.2,2.9,0.2,2.4c0,0,2.2,0.5,0.9,0.6C98.5,73.9,97.9,75,96.4,75.2z"/>
<path id="treeTrunkFront_2_" class="st237" d="M102.6,85.6c0,0-2.3,1.8-1,4.7s-1.7,0.6-1.7,0.6S99.5,84.9,102.6,85.6z"/>
<path id="outerIconCasing" class="st239" d="M74.7,0.7C33.4,0.7,0,34.1,0,75.3S33.4,150,74.7,150s74.7-33.4,74.7-74.7
	S115.9,0.7,74.7,0.7z M121.6,111.6c0,0-8.5-5-17.3-6.9c-8.8-1.9-15.6,10.1-29.6,6.1c-14-3.9,0-10.6,0-10.6c-10.4-5.5-20.4,5-20.4,5
	s-7.2,7.7-13.6,5c-6.3-2.7,0-7.2,0-7.2s-2.7-6.3-10.9,0c-2.2,1.7-4.3,2.5-6.1,2.7c-5.3-8.9-8.3-19.2-8.3-30.3
	c0-32.7,26.5-59.3,59.3-59.3c32.7,0,59.3,26.5,59.3,59.3C133.9,89,129.3,101.5,121.6,111.6z"/>
<path id="frontFog" class="st240" d="M29.9,102.9c8.1-6.3,10.9,0,10.9,0s-6.3,4.5,0,7.2c6.3,2.7,13.6-5,13.6-5s10-10.6,20.4-5
	c0,0-14,6.7,0,10.6c14,3.9,20.8-8,29.6-6.1c8.8,1.9,17.3,6.9,17.3,6.9c5.5-7.2,9.5-15.6,11.3-24.8c-9.1,0.9-26.5,1.9-54.9,1.2
	c-31.9-0.7-52.7-6-62.5-9.1c0.6,9.8,3.5,18.9,8.2,26.9C25.6,105.4,27.7,104.7,29.9,102.9z"/>
<path id="lightBeam" class="st241" d="M16.1,66.1l57.8-15.2v-5.4l-40.1-13C24.5,41.2,18.2,52.9,16.1,66.1z"/>
</svg>
