<?xml version="1.0" encoding="utf-8"?>
<!-- Generator: Adobe Illustrator 20.0.0, SVG Export Plug-In . SVG Version: 6.00 Build 0)  -->
<svg version="1.1" id="Layer_3" xmlns="http://www.w3.org/2000/svg" xmlns:xlink="http://www.w3.org/1999/xlink" x="0px" y="0px"
	 viewBox="0 0 150 150" style="enable-background:new 0 0 150 150;" xml:space="preserve">
<style type="text/css">
	.st0{fill:#3C485B;}
	.st1{fill:#3C495C;}
	.st2{fill:#3D495C;}
	.st3{fill:#3D495D;}
	.st4{fill:#3E495E;}
	.st5{fill:#3E495F;}
	.st6{fill:#3F4960;}
	.st7{fill:#404A61;}
	.st8{fill:#404A62;}
	.st9{fill:#414A63;}
	.st10{fill:#424A64;}
	.st11{fill:#424A65;}
	.st12{fill:#434A66;}
	.st13{fill:#434B67;}
	.st14{fill:#444B67;}
	.st15{fill:#444B68;}
	.st16{fill:#454B69;}
	.st17{fill:#454B6A;}
	.st18{fill:#464B6A;}
	.st19{fill:#464B6B;}
	.st20{fill:#464B6C;}
	.st21{fill:#474B6C;}
	.st22{fill:#474B6D;}
	.st23{fill:#484B6D;}
	.st24{fill:#484B6E;}
	.st25{fill:#484B6F;}
	.st26{fill:#494C6F;}
	.st27{fill:#494C70;}
	.st28{fill:#4A4C71;}
	.st29{fill:#4A4C72;}
	.st30{fill:#4B4C72;}
	.st31{fill:#4B4C73;}
	.st32{fill:#4B4C74;}
	.st33{fill:#4C4C74;}
	.st34{fill:#4C4C75;}
	.st35{fill:#4D4C75;}
	.st36{fill:#4D4C76;}
	.st37{fill:#4D4C77;}
	.st38{fill:#4E4C77;}
	.st39{fill:#4E4C78;}
	.st40{fill:#4F4C79;}
	.st41{fill:#4F4C7A;}
	.st42{fill:#504C7A;}
	.st43{fill:#504C7B;}
	.st44{fill:#504C7C;}
	.st45{fill:#514C7C;}
	.st46{fill:#514C7D;}
	.st47{fill:#524C7D;}
	.st48{fill:#524C7E;}
	.st49{fill:#524C7F;}
	.st50{fill:#534C7F;}
	.st51{fill:#534C80;}
	.st52{fill:#544C81;}
	.st53{fill:#544C82;}
	.st54{fill:#554C82;}
	.st55{fill:#554C83;}
	.st56{fill:#EFEEE8;}
	.st57{fill:#E5E5E5;}
	.st58{fill:#2D2D2D;}
	.st59{fill:#DFDDE0;}
	.st60{fill:#545554;}
	.st61{fill:#686868;}
	.st62{fill:#E9E852;}
	.st63{fill:#F9F9FA;}
	.st64{fill:#434444;}
	.st65{fill:#C12430;}
	.st66{fill:#C02230;}
	.st67{fill:#2B2B2B;}
	.st68{fill:#DCDCDC;}
	.st69{fill:#B4B385;}
	.st70{fill:#506552;}
	.st71{fill:#375B55;}
	.st72{fill:#695561;}
	.st73{fill:#274F49;}
	.st74{fill:#45587F;}
	.st75{opacity:0.47;fill:#E9E852;}
</style>
<g id="gradientBackgroundBigCircle_2_">
	<circle class="st0" cx="75.3" cy="75" r="74.7"/>
	<circle class="st1" cx="75.1" cy="74.3" r="73.8"/>
	<circle class="st2" cx="75" cy="73.5" r="72.8"/>
	<circle class="st3" cx="74.8" cy="72.8" r="71.8"/>
	<circle class="st4" cx="74.7" cy="72.1" r="70.9"/>
	<circle class="st4" cx="74.5" cy="71.4" r="69.9"/>
	<circle class="st5" cx="74.4" cy="70.6" r="68.9"/>
	<circle class="st6" cx="74.2" cy="69.9" r="68"/>
	<circle class="st6" cx="74.1" cy="69.2" r="67"/>
	<circle class="st7" cx="73.9" cy="68.4" r="66"/>
	<circle class="st8" cx="73.8" cy="67.7" r="65.1"/>
	<circle class="st8" cx="73.6" cy="67" r="64.1"/>
	<circle class="st9" cx="73.5" cy="66.3" r="63.1"/>
	<circle class="st9" cx="73.3" cy="65.5" r="62.2"/>
	<circle class="st10" cx="73.2" cy="64.8" r="61.2"/>
	<circle class="st11" cx="73" cy="64.1" r="60.3"/>
	<circle class="st11" cx="72.9" cy="63.3" r="59.3"/>
	<circle class="st12" cx="72.7" cy="62.6" r="58.3"/>
	<circle class="st13" cx="72.6" cy="61.9" r="57.4"/>
	<circle class="st14" cx="72.4" cy="61.2" r="56.4"/>
	<circle class="st15" cx="72.2" cy="60.4" r="55.4"/>
	<circle class="st15" cx="72.1" cy="59.7" r="54.5"/>
	<circle class="st16" cx="71.9" cy="59" r="53.5"/>
	<circle class="st17" cx="71.8" cy="58.2" r="52.5"/>
	<circle class="st18" cx="71.6" cy="57.5" r="51.6"/>
	<circle class="st19" cx="71.5" cy="56.8" r="50.6"/>
	<circle class="st20" cx="71.3" cy="56.1" r="49.6"/>
	<circle class="st21" cx="71.2" cy="55.3" r="48.7"/>
	<circle class="st22" cx="71" cy="54.6" r="47.7"/>
	<circle class="st23" cx="70.9" cy="53.9" r="46.7"/>
	<circle class="st24" cx="70.7" cy="53.1" r="45.8"/>
	<circle class="st25" cx="70.6" cy="52.4" r="44.8"/>
	<circle class="st26" cx="70.4" cy="51.7" r="43.8"/>
	<circle class="st27" cx="70.3" cy="51" r="42.9"/>
	<circle class="st28" cx="70.1" cy="50.2" r="41.9"/>
	<circle class="st28" cx="70" cy="49.5" r="40.9"/>
	<circle class="st29" cx="69.8" cy="48.8" r="40"/>
	<circle class="st30" cx="69.7" cy="48" r="39"/>
	<circle class="st31" cx="69.5" cy="47.3" r="38.1"/>
	<circle class="st32" cx="69.4" cy="46.6" r="37.1"/>
	<circle class="st33" cx="69.2" cy="45.9" r="36.1"/>
	<circle class="st34" cx="69.1" cy="45.1" r="35.2"/>
	<circle class="st35" cx="68.9" cy="44.4" r="34.2"/>
	<circle class="st36" cx="68.8" cy="43.7" r="33.2"/>
	<circle class="st37" cx="68.6" cy="42.9" r="32.3"/>
	<circle class="st38" cx="68.5" cy="42.2" r="31.3"/>
	<circle class="st39" cx="68.3" cy="41.5" r="30.3"/>
	<circle class="st40" cx="68.2" cy="40.8" r="29.4"/>
	<circle class="st40" cx="68" cy="40" r="28.4"/>
	<circle class="st41" cx="67.9" cy="39.3" r="27.4"/>
	<circle class="st42" cx="67.7" cy="38.6" r="26.5"/>
	<circle class="st43" cx="67.6" cy="37.9" r="25.5"/>
	<circle class="st44" cx="67.4" cy="37.1" r="24.5"/>
	<circle class="st45" cx="67.3" cy="36.4" r="23.6"/>
	<circle class="st46" cx="67.1" cy="35.7" r="22.6"/>
	<circle class="st47" cx="67" cy="34.9" r="21.6"/>
	<circle class="st48" cx="66.8" cy="34.2" r="20.7"/>
	<circle class="st49" cx="66.7" cy="33.5" r="19.7"/>
	<circle class="st50" cx="66.5" cy="32.8" r="18.7"/>
	<circle class="st51" cx="66.4" cy="32" r="17.8"/>
	<circle class="st51" cx="66.2" cy="31.3" r="16.8"/>
	<circle class="st52" cx="66.1" cy="30.6" r="15.9"/>
	<circle class="st53" cx="65.9" cy="29.8" r="14.9"/>
	<circle class="st54" cx="65.8" cy="29.1" r="13.9"/>
	<circle class="st55" cx="65.6" cy="28.4" r="13"/>
</g>
<circle id="moon" class="st56" cx="65.6" cy="28.4" r="9.3"/>
<polygon id="tourHouseBase_3_" class="st57" points="96.7,89.4 96.7,74.6 90.8,70.5 90.8,66.9 85.7,66.9 85.7,70.1 79.1,75.5 
	79.1,89.9 "/>
<rect id="tourHouseWindow_2_" x="81.5" y="76.7" class="st58" width="3.1" height="4.1"/>
<rect id="chimney_3_" x="85.7" y="66.9" class="st59" width="5.2" height="22.2"/>
<path id="lightSocket_4_" class="st60" d="M73.9,45.1c0,0,2.3,1.6,2.3,2.5c0,0.9-2.3,2.9-2.3,2.9V45.1z"/>
<path id="lightArm_4_" class="st61" d="M76.2,43l-0.8,4.3c0,0,0.2,0.8,0.8,0.3l1.9-4L76.2,43z"/>
<path id="lightBulb_4_" class="st62" d="M73.9,50.2c0,0-4.6-2.1,0-4.8V50.2z"/>
<path id="lighthouseBaseStroke_3_" class="st63" d="M75.4,90.1c2.9,0,5.8,0.4,8.5,1c-1-14.7-2.2-32.6-2.2-32.6
	c-2.6-0.7-4.8-0.7-7-0.6c-2.2-0.2-4.4-0.1-7,0.6c0,0-1.1,18.2-2.2,32.9C68.7,90.5,72,90.1,75.4,90.1z"/>
<path id="lighthouseWindow_2_" class="st64" d="M79.7,44L79.7,44v0.9L79,44.8v-0.9L79.7,44c-0.4-0.5-1-0.7-1.6-0.7h-6.4
	c-0.6,0-1.2,0.3-1.5,0.7h0.7v0.9l-0.7,0.1l0.1-0.8L70.2,44c-0.3,0.4-0.6,0.9-0.6,1.4v6.5h10.6v-6.5C80.2,44.8,80,44.4,79.7,44z
	 M70.8,50.4L70,50.5v-1h0.8V50.4z M70.8,48.5L70,48.6v-1h0.8V48.5z M70.8,46.6L70,46.7v-1h0.8V46.6z M72.6,50.3h-0.9v-0.9h0.9V50.3z
	 M72.6,48.5h-0.9v-0.9h0.9V48.5z M72.6,46.5l-0.9,0.1v-0.9h0.9V46.5z M72.6,44.7h-0.9v-0.9h0.9V44.7z M74.4,50.3h-0.9v-0.9l0.9-0.1
	V50.3z M74.4,48.5h-0.9v-0.9l0.9-0.1V48.5z M74.4,46.6h-0.9v-0.9l0.9-0.1V46.6z M74.4,44.7h-0.9v-0.9l0.9-0.1L74.4,44.7z M76.3,50.3
	h-0.9v-1l0.9,0.1V50.3z M76.3,48.5h-0.9v-1l0.9,0.1V48.5z M76.3,46.6h-0.9v-1l0.9,0.1V46.6z M76.3,44.7h-0.9l0-1l0.9,0.1V44.7z
	 M78.2,50.3h-0.9v-0.9h0.9V50.3z M78.2,48.5h-0.9v-0.9h0.9V48.5z M78.2,46.6l-0.9-0.1v-0.8h0.9V46.6z M78.2,44.7h-0.9v-0.9h0.9V44.7
	z M79.9,50.5l-0.8-0.1v-0.9h0.8V50.5z M79.9,48.6l-0.8-0.1v-0.9h0.8V48.6z M79.9,46.7l-0.8-0.1v-0.9h0.8V46.7z"/>
<path id="topBase_3_" class="st65" d="M81.3,55.7c0,0,0.4-1.6,0.4-2.3c0.1-0.8-1.6-1.8-3.1-2.2c-1.4-0.4-6.8-0.8-9.8,1.2
	c-0.5,0.3-0.8,0.9-0.7,1.5c0,0.4,0.5,1.8,0.5,1.8H81.3z"/>
<path id="topRoof_2_" class="st66" d="M75.9,39.4l0.4,0.2c0.5,0.2,0.9,0.5,1.3,0.8c0.3,0.2,0.6,0.4,0.8,0.7l2.8,3.4l-4.5-0.6
	c-1.2-0.2-2.5-0.2-3.7,0l-4.4,0.6l2.5-2.9c0,0,0,0,0.1-0.1c0.6-0.8,1.3-1.4,2.2-1.8l0.3-0.2C74.4,39.3,75.2,39.2,75.9,39.4z"/>
<path id="topPoint_3_" class="st66" d="M74.9,39.5c0,0,1.9-1.4,0-3.2C74.9,36.3,73.1,37.9,74.9,39.5"/>
<rect id="windowRight_2_" x="69" y="77.2" class="st67" width="0.8" height="3.5"/>
<rect id="windowLeft_2_" x="79.2" y="68.6" class="st67" width="0.8" height="3.5"/>
<polygon class="st63" points="67.7,58.5 81.9,58.5 83.4,55.4 66.1,55.4 "/>
<path id="railing_2_" class="st63" d="M66.1,51.9v3.6h17.3v-3.6H66.1z M66.9,55.1h-0.4v-2.7h0.4V55.1z M68.2,55.1h-0.4v-2.7h0.4
	V55.1z M69.4,55.1H69v-2.7h0.4V55.1z M70.6,55.1h-0.4v-2.7h0.4V55.1z M71.9,55.1h-0.4v-2.7h0.4V55.1z M73.1,55.1h-0.4v-2.7h0.4V55.1
	z M74.3,55.1h-0.4v-2.7h0.4V55.1z M75.6,55.1h-0.4v-2.7h0.4V55.1z M76.8,55.1h-0.4v-2.7h0.4V55.1z M78,55.1h-0.4v-2.7H78V55.1z
	 M79.3,55.1h-0.4v-2.7h0.4V55.1z M80.5,55.1h-0.4v-2.7h0.4V55.1z M81.7,55.1h-0.4v-2.7h0.4V55.1z M83,55.1h-0.4v-2.7H83V55.1z"/>
<path id="islandBase_4_" class="st68" d="M136.8,109c0,11-33.2,19.9-53.2,19.9S39.2,120,39.2,109c0-5.5,12.3-12.7,18.8-16.3
	s15.6-3.6,25.6-3.6c9.8,0,31.6,2.1,38.2,5.6C128.6,98.3,136.8,103.3,136.8,109z"/>
<path id="grass_4_" class="st69" d="M78.2,96c0,0,5.2,0.7,5.7,9.1s23.3,3.9,23.3,3.9s7.7-7.1,14.8-2.5c7.1,4.6,7-7.5,7-7.5
	s-8.6-10.1-45.4-9.9s-23.8,7.3-23.8,7.3S60.5,99.6,78.2,96z"/>
<path id="grassDetail_4_" class="st70" d="M56.8,93.4c0,0-2.2-0.2-2-2.7c0,0,2.1,2.1,3.7,1.3c1.6-0.8,3.9-1.2,3.9-1.2s3.1-0.6,2-2.4
	c-1.1-1.7,0.4,0,0.4,0s0.7,1,0.6,2c0.3,0.1,0.6-1.2-0.2-2c0,0,0.4-0.2,1,1c0.6,1.2,0.3,1.3,0.3,1.3s-1.1,1.4,0.4,0.5
	c0.5-0.3,0.7,0.3-1.2,0.9c-0.8,0.3,14.3,1.3,12.7,1.7c-18.4,4.1-18.4-0.6-19.8-0.6C58,93.4,57.4,93.4,56.8,93.4z"/>
<path id="treetopBack_3_" class="st71" d="M120,82.3c2-0.9,2.5-2.2,2.5-2.2s1.2-0.3-3.3-6.2c-4.5-5.9-8.9-2.8-12.3-2.2
	s-6.2,5.8-5.1,6.2c0.6,0.2,1.4,1.5,1.8,2.4c0.4,0.7,1,1.2,1.8,1.4c0.8,0.2,1.9,0.6,2.6,1.4c1.2,1.6-0.9,2.8-0.4,4.4s3.7,2.5,3.8,3.3
	c0,0.3,0.3,0.5,0.7,0.6c0.8,0.2,1.6,0.1,2.3-0.4c0.6-0.4,1.6-0.9,3.1-0.6c2,0.4,1.9-1.6,1.7-2.5c0-0.3,0-0.5,0-0.8
	c0.2-1,0.4-3.1-0.8-2.3c0,0-2.2,0.1-1-0.3C118.4,84,118.7,82.8,120,82.3z"/>
<path id="treeTrunkBack_3_" class="st72" d="M112.9,89.1c0,0,1.3,2.3,0.7,2.9h-0.9L112.9,89.1z"/>
<path id="treetopFront_4_" class="st73" d="M96.5,74.8c-2.2,0.3-3,1.5-3,1.5s-1.2,0,1.6,6.8c2.8,6.8,7.9,5,11.4,5.3
	c3.4,0.3,7.5-4,6.5-4.7c-0.5-0.4-0.9-1.7-1.2-2.8c-0.2-0.8-0.7-1.5-1.4-1.8c-0.8-0.4-1.7-1-2.1-2c-0.8-1.9,1.6-2.5,1.6-4.1
	c0-1.6-3-3.3-2.8-4.1c0.1-0.3-0.2-0.5-0.5-0.7c-0.7-0.4-1.5-0.5-2.3-0.2c-0.7,0.3-1.8,0.4-3.1-0.2c-1.8-0.9-2.2,1.1-2.3,1.9
	c0,0.3-0.1,0.5-0.2,0.8c-0.4,0.9-1.2,2.9,0.2,2.4c0,0,2.2,0.5,0.9,0.6C98.6,73.5,98,74.6,96.5,74.8z"/>
<path id="treeTrunkFront_4_" class="st72" d="M102.7,85.2c0,0-2.3,1.8-1,4.7c1.2,2.8-1.7,0.6-1.7,0.6S99.6,84.6,102.7,85.2z"/>
<path id="outerIconCasing_2_" class="st74" d="M74.7,0.3C33.5,0.3,0,33.7,0,75s33.5,74.7,74.7,74.7s74.7-33.5,74.7-74.7
	S116,0.3,74.7,0.3z M121.7,111.3c0,0-8.5-5-17.3-6.9c-8.8-1.9-15.6,10.1-29.7,6.1c-14-4,0-10.6,0-10.6c-10.4-5.5-20.4,5-20.4,5
	s-7.2,7.8-13.6,5c-6.3-2.7,0-7.2,0-7.2s-2.7-6.3-10.9,0c-2.2,1.7-4.3,2.5-6.1,2.7c-5.3-8.9-8.4-19.3-8.4-30.4
	c0-32.8,26.6-59.3,59.3-59.3s59.3,26.6,59.3,59.3C134.1,88.7,129.5,101.2,121.7,111.3z"/>
<path id="lightBeam_1_" class="st75" d="M16.1,65.7l57.8-15.2v-5.4l-40.2-13C24.6,40.9,18.2,52.6,16.1,65.7z"/>
<polygon class="st56" points="94.4,40.7 94.6,41 94.9,41.1 94.6,41.3 94.4,41.6 94.3,41.3 94,41.1 94.3,41 "/>
<polygon class="st56" points="100.1,37.8 99.9,37.5 99.5,37.5 99.8,37.2 99.9,36.8 100.1,37.1 100.5,37.2 100.2,37.4 "/>
<polygon class="st56" points="105.7,40 105.6,39.7 105.4,39.5 105.8,39.4 106,39.2 106,39.6 106.2,39.8 105.9,39.8 "/>
<polygon class="st56" points="107.6,46.7 107.2,46.5 106.7,46.6 106.8,46.2 106.7,45.7 107.2,45.8 107.7,45.7 107.5,46.2 "/>
<polygon class="st56" points="111.5,47.5 111.5,47.7 111.7,48 111.4,47.9 111.2,48.1 111.2,47.8 111.1,47.6 111.3,47.6 "/>
<polygon class="st56" points="117,49.3 117,49.5 117.1,49.6 116.9,49.6 116.8,49.7 116.8,49.6 116.7,49.4 116.8,49.4 "/>
<polygon class="st56" points="99.5,59.4 99.6,59.6 99.9,59.7 99.6,59.8 99.5,60.1 99.4,59.8 99.2,59.7 99.4,59.6 "/>
<polygon class="st56" points="85.4,47.5 85.3,47.5 85.3,47.6 85.2,47.5 85.2,47.5 85.2,47.4 85.3,47.4 85.3,47.4 "/>
<polygon class="st56" points="95.3,31.8 95.4,32 95.6,32.1 95.4,32.2 95.3,32.4 95.2,32.2 95,32.1 95.2,32 "/>
<polygon class="st56" points="54.3,71.7 54.5,72 54.8,72.2 54.5,72.4 54.3,72.7 54.1,72.4 53.7,72.2 54.1,72 "/>
<polygon class="st56" points="52.1,76.7 52.2,76.6 52.2,76.6 52.2,76.6 52.3,76.7 52.2,76.7 52.2,76.7 52.2,76.7 "/>
<polygon class="st56" points="59.2,65.7 59.3,66 59.5,66.1 59.3,66.2 59.2,66.5 59,66.2 58.8,66.1 59,66 "/>
<polygon class="st56" points="48.1,65.3 48.3,65.4 48.4,65.3 48.3,65.5 48.4,65.6 48.3,65.6 48.1,65.6 48.2,65.5 "/>
<polygon class="st56" points="97.3,49.5 97.4,49.6 97.5,49.7 97.4,49.8 97.3,49.9 97.3,49.8 97.1,49.7 97.3,49.6 "/>
<polygon class="st56" points="128.1,71.7 128.3,72 128.7,72.1 128.4,72.3 128.3,72.7 128.1,72.4 127.7,72.3 128,72.1 "/>
<polygon class="st56" points="22,87.1 22.4,87.3 23,87.2 22.7,87.7 22.8,88.2 22.3,88 21.8,88 22,87.6 "/>
<polygon class="st56" points="22.4,68.6 22.7,68.4 23,68.1 23.2,68.4 23.5,68.6 23.2,68.9 23,69.2 22.7,68.9 "/>
<polygon class="st56" points="25.3,71.1 25.5,71.3 25.6,71.3 25.5,71.4 25.4,71.6 25.3,71.5 25.1,71.4 25.3,71.3 "/>
</svg>
